<?xml version="1.0" encoding="utf-8"?>
<!-- Generator: Adobe Illustrator 25.0.1, SVG Export Plug-In . SVG Version: 6.00 Build 0)  -->
<svg version="1.1" id="Layer_1" xmlns="http://www.w3.org/2000/svg" xmlns:xlink="http://www.w3.org/1999/xlink" x="0px" y="0px"
	 viewBox="0 0 773 687" style="enable-background:new 0 0 773 687;" xml:space="preserve">
<style type="text/css">
	.st0{clip-path:url(#SVGID_2_);}
	.st1{fill:#FFDD5D;}
	.st2{clip-path:url(#SVGID_4_);}
	.st3{fill:none;}
	.st4{clip-path:url(#SVGID_6_);}
	.st5{clip-path:url(#SVGID_8_);}
	.st6{stroke:#FFFFFF;stroke-width:45;}
	.st7{fill:#FFFFFF;}
</style>
<g>
	<g>
		<defs>
			<rect id="SVGID_1_" x="324" y="2" width="310" height="375"/>
		</defs>
		<use xlink:href="#SVGID_1_"  style="overflow:visible;fill:#FFDD5D;"/>
		<clipPath id="SVGID_2_">
			<use xlink:href="#SVGID_1_"  style="overflow:visible;"/>
		</clipPath>
		<g class="st0">
			<path class="st1" d="M344,2h270c11,0,20,9,20,20v335c0,11-9,20-20,20H344c-11,0-20-9-20-20V22C324,11,333,2,344,2z"/>
			<rect x="335" y="2" class="st1" width="296" height="358"/>
		</g>
	</g>
</g>
<g>
	<g>
		<defs>
			<rect id="SVGID_3_" x="1.5" y="390.7" width="634" height="296"/>
		</defs>
		<clipPath id="SVGID_4_">
			<use xlink:href="#SVGID_3_"  style="overflow:visible;"/>
		</clipPath>
		<g class="st2">
			<path class="st1" d="M21.5,390.7h594c11,0,20,9,20,20v256c0,11-9,20-20,20h-594c-11,0-20-9-20-20v-256
				C1.5,399.7,10.5,390.7,21.5,390.7z"/>
			<rect x="83.5" y="391.7" class="st3" width="401" height="294"/>
		</g>
	</g>
</g>
<g>
	<g>
		<defs>
			<rect id="SVGID_5_" width="310" height="377"/>
		</defs>
		<clipPath id="SVGID_6_">
			<use xlink:href="#SVGID_5_"  style="overflow:visible;"/>
		</clipPath>
		<g class="st4">
			<g>
				<path d="M200.4,354.5c0,3-8.1,5.5-18.2,5.5c-10,0-18.2-2.5-18.2-5.5s8.1-5.5,18.2-5.5C192.2,349,200.4,351.5,200.4,354.5z"/>
				<path d="M205,354.5c0,3-8.1,5.5-18.2,5.5c-10,0-18.2-2.5-18.2-5.5s8.1-5.5,18.2-5.5S205,351.5,205,354.5z"/>
			</g>
			<path class="st1" d="M20,2h270c11,0,20,9,20,20v335c0,11-9,20-20,20H20c-11,0-20-9-20-20V22C0,11,9,2,20,2z"/>
			<rect x="35" class="st3" width="240" height="360"/>
		</g>
	</g>
</g>
<g>
	<g>
		<defs>
			<rect id="SVGID_7_" x="517.8" y="329" width="255.2" height="254"/>
		</defs>
		<clipPath id="SVGID_8_">
			<use xlink:href="#SVGID_7_"  style="overflow:visible;"/>
		</clipPath>
		<g class="st5">
			<circle class="st6" cx="644" cy="454" r="89.5"/>
			<path class="st7" d="M617.4,433.4c2.5,0.2,4.4,1,5.7,2.3s1.9,2.9,1.9,4.9c0,1.4-0.4,2.7-1.1,3.9c-0.7,1.2-1.8,2.1-3.2,2.8
				c-1.4,0.7-3.2,1-5.2,1c-1.8,0-3.5-0.3-5.2-0.8c-1.7-0.6-3-1.3-4.1-2.3l1.7-2.8c0.9,0.8,2,1.5,3.3,2s2.8,0.7,4.3,0.7
				c1.9,0,3.3-0.4,4.4-1.2c1.1-0.8,1.6-1.9,1.6-3.3s-0.5-2.5-1.5-3.2c-1-0.8-2.6-1.2-4.7-1.2h-2v-2.5l6.3-7.8h-12.1v-3.1H624v2.4
				L617.4,433.4z M638.6,448.3c-2,0-3.8-0.5-5.3-1.5s-2.7-2.5-3.6-4.5s-1.3-4.2-1.3-6.9s0.4-5,1.3-6.9s2.1-3.4,3.6-4.4
				c1.6-1,3.3-1.5,5.3-1.5s3.7,0.5,5.3,1.5s2.8,2.5,3.7,4.4s1.3,4.2,1.3,6.9s-0.4,5-1.3,6.9s-2.1,3.4-3.7,4.5
				C642.4,447.8,640.6,448.3,638.6,448.3z M638.6,445.1c2,0,3.6-0.8,4.8-2.5s1.8-4.1,1.8-7.2s-0.6-5.5-1.8-7.2s-2.8-2.5-4.8-2.5
				s-3.7,0.8-4.9,2.5s-1.8,4.1-1.8,7.2s0.6,5.5,1.8,7.2C635,444.3,636.6,445.1,638.6,445.1z M657.8,436.3c-1.8,0-3.2-0.6-4.2-1.9
				s-1.6-2.9-1.6-5c0-2,0.5-3.7,1.6-5s2.5-1.9,4.2-1.9c1.8,0,3.2,0.6,4.2,1.9c1.1,1.2,1.6,2.9,1.6,5s-0.5,3.7-1.6,5
				C661,435.7,659.6,436.3,657.8,436.3z M673,422.8h2.8L658.6,448h-2.8L673,422.8z M657.8,434.3c1.1,0,2-0.4,2.6-1.3
				s0.9-2.1,0.9-3.6s-0.3-2.7-0.9-3.5c-0.6-0.9-1.5-1.3-2.6-1.3s-1.9,0.4-2.6,1.3c-0.6,0.9-0.9,2-0.9,3.5s0.3,2.7,0.9,3.5
				C655.9,433.9,656.8,434.3,657.8,434.3z M673.8,448.2c-1.8,0-3.2-0.6-4.2-1.9c-1.1-1.3-1.6-2.9-1.6-5s0.5-3.7,1.6-5
				s2.5-1.9,4.2-1.9c1.8,0,3.2,0.6,4.2,1.9c1.1,1.3,1.6,2.9,1.6,5s-0.5,3.7-1.6,5C677,447.6,675.5,448.2,673.8,448.2z M673.8,446.2
				c1.1,0,1.9-0.4,2.6-1.3c0.6-0.9,1-2,1-3.5s-0.3-2.7-1-3.5c-0.6-0.9-1.5-1.3-2.6-1.3s-2,0.4-2.6,1.3c-0.6,0.8-0.9,2-0.9,3.5
				s0.3,2.7,0.9,3.6C671.8,445.7,672.7,446.2,673.8,446.2z M620.7,492.3c-2.5,0-4.8-0.6-6.9-1.7c-2-1.1-3.6-2.7-4.8-4.6
				c-1.2-2-1.7-4.2-1.7-6.6s0.6-4.6,1.7-6.6c1.2-2,2.8-3.5,4.8-4.6s4.3-1.7,6.9-1.7c2.5,0,4.8,0.6,6.8,1.7s3.6,2.6,4.8,4.6
				c1.2,1.9,1.7,4.1,1.7,6.6s-0.6,4.7-1.7,6.6c-1.2,1.9-2.7,3.5-4.8,4.6C625.5,491.7,623.2,492.3,620.7,492.3z M620.7,489.1
				c1.8,0,3.5-0.4,5-1.3c1.5-0.8,2.7-2,3.5-3.5c0.9-1.5,1.3-3.1,1.3-5s-0.4-3.5-1.3-4.9c-0.8-1.5-2-2.7-3.5-3.5s-3.1-1.3-5-1.3
				c-1.8,0-3.5,0.4-5,1.3c-1.5,0.8-2.7,2-3.5,3.5s-1.3,3.1-1.3,4.9s0.4,3.5,1.3,5c0.9,1.5,2,2.6,3.5,3.5S618.8,489.1,620.7,489.1z
				 M643.1,469.9v8.8h12.6v3.1h-12.6V492h-3.6v-25.2h17.8v3.1H643.1z M666,469.9v8.8h12.6v3.1H666V492h-3.6v-25.2h17.8v3.1H666z"/>
			<path d="M646.9,365.6v4.4h-1.8v-4.4l-5-8.2h1.9l4,6.6l4-6.6h1.8L646.9,365.6z"/>
			<path d="M662.9,371.9c-0.9-0.2-1.7-0.6-2.4-1.1c-0.7-0.6-1.1-1.2-1.4-2c-0.3-0.8-0.3-1.7-0.1-2.6s0.6-1.7,1.1-2.3
				c0.6-0.6,1.3-1.1,2.1-1.3c0.8-0.3,1.7-0.3,2.6-0.1c0.9,0.2,1.7,0.6,2.4,1.1s1.1,1.2,1.4,2c0.3,0.8,0.3,1.7,0.1,2.6
				s-0.6,1.7-1.1,2.3c-0.6,0.6-1.2,1.1-2.1,1.4C664.7,372,663.8,372.1,662.9,371.9z M663.2,370.4c0.6,0.1,1.2,0.1,1.7-0.1
				s1-0.5,1.4-0.9c0.4-0.5,0.6-1,0.8-1.6c0.1-0.6,0.1-1.2-0.1-1.8c-0.2-0.6-0.5-1-0.9-1.4s-0.9-0.6-1.5-0.7s-1.2-0.1-1.7,0.1
				s-1,0.5-1.4,0.9s-0.6,1-0.7,1.6c-0.1,0.6-0.1,1.3,0.1,1.8c0.2,0.6,0.5,1,0.9,1.4C662.1,370.1,662.6,370.3,663.2,370.4z"/>
			<path d="M687.3,369.8l-3.7,8.8l-1.5-0.6l0.6-1.3c-0.5,0.3-1.1,0.5-1.7,0.5c-0.6,0-1.2-0.1-1.9-0.3c-1.2-0.5-2-1.2-2.4-2.1
				s-0.3-2,0.2-3.3l2.1-5.1l1.6,0.7l-2,4.9c-0.4,0.9-0.4,1.6-0.2,2.2s0.7,1.1,1.5,1.4s1.6,0.4,2.3,0.1s1.2-0.9,1.6-1.9l1.9-4.6
				L687.3,369.8z"/>
			<path d="M707.2,395.8c-0.7-0.7-1.2-1.5-1.4-2.3s-0.2-1.7,0-2.5s0.7-1.6,1.3-2.2c0.7-0.7,1.4-1.1,2.2-1.3c0.8-0.2,1.7-0.2,2.5,0
				s1.6,0.7,2.3,1.4c0.6,0.6,1,1.3,1.3,2c0.2,0.7,0.3,1.5,0.1,2.2l-1.5-0.3c0.1-0.5,0.1-1-0.1-1.5s-0.4-0.9-0.8-1.3
				c-0.4-0.4-0.9-0.7-1.5-0.9c-0.5-0.2-1.1-0.1-1.7,0c-0.6,0.2-1.1,0.5-1.5,0.9c-0.5,0.5-0.8,1-1,1.6s-0.2,1.1,0,1.7s0.5,1,0.9,1.5
				c0.4,0.4,0.8,0.6,1.3,0.8c0.5,0.2,1,0.2,1.5,0.1l0.3,1.5c-0.7,0.2-1.5,0.2-2.2,0C708.5,396.9,707.8,396.4,707.2,395.8z"/>
			<path d="M725.4,402.7c0.7,1.1,1,2.1,0.9,3.1c-0.1,0.9-0.8,1.8-1.8,2.5l-4.8,3.2l-0.9-1.4l1-0.7c-0.5,0-1-0.1-1.5-0.5
				c-0.5-0.3-0.9-0.8-1.3-1.4c-0.6-0.9-0.9-1.7-0.8-2.6c0.1-0.8,0.5-1.5,1.2-1.9c0.7-0.5,1.4-0.6,2.2-0.4s1.5,0.9,2.3,2l1.5,2.3
				l0.3-0.2c0.6-0.4,1-0.9,1.1-1.5s-0.1-1.2-0.6-1.9c-0.3-0.5-0.7-0.9-1.2-1.2c-0.5-0.3-0.9-0.6-1.4-0.7l0.7-1.3
				c0.6,0.2,1.2,0.5,1.7,1C724.5,401.5,725,402.1,725.4,402.7z M718.2,407.1c0.4,0.5,0.8,0.9,1.3,1.2c0.5,0.2,1.1,0.3,1.6,0.2
				l1.1-0.7l-1.5-2.2c-0.8-1.2-1.6-1.6-2.4-1c-0.4,0.3-0.6,0.6-0.6,1.1C717.6,406,717.8,406.5,718.2,407.1z"/>
			<path d="M734.8,420.6c0.5,1.1,0.5,2.1,0.1,3.1c-0.4,0.9-1.2,1.7-2.4,2.2l-5.1,2.1l-0.7-1.6l4.9-2c0.9-0.4,1.4-0.8,1.7-1.4
				s0.2-1.3-0.1-2c-0.4-0.9-0.9-1.4-1.6-1.7c-0.7-0.3-1.5-0.2-2.5,0.1l-4.5,1.9l-0.7-1.6l8.8-3.7l0.6,1.5l-1.3,0.6
				c0.6,0.1,1.1,0.4,1.6,0.9C734.2,419.3,734.5,419.9,734.8,420.6z"/>
			<path d="M741.5,461h-8.2c-1.7,0-2.9-0.4-3.7-1.2c-0.8-0.8-1.2-2.1-1.2-3.7c0-0.9,0.1-1.8,0.4-2.6c0.2-0.8,0.6-1.5,1-2l1.3,0.8
				c-0.4,0.4-0.7,1-0.9,1.6c-0.2,0.7-0.3,1.3-0.3,2c0,1.1,0.3,1.9,0.8,2.5c0.5,0.5,1.3,0.8,2.4,0.8h0.8c-0.5-0.4-0.9-0.9-1.1-1.5
				c-0.2-0.6-0.4-1.2-0.4-1.9c0-0.9,0.2-1.7,0.6-2.5c0.4-0.7,0.9-1.3,1.6-1.7c0.7-0.4,1.5-0.6,2.4-0.6s1.7,0.2,2.4,0.6
				s1.3,1,1.6,1.7c0.4,0.7,0.6,1.6,0.6,2.5c0,0.7-0.1,1.4-0.4,2c-0.3,0.6-0.7,1.1-1.2,1.5h1.5L741.5,461L741.5,461z M733.9,456.1
				c0,0.6,0.1,1.2,0.4,1.7c0.3,0.5,0.6,0.9,1.1,1.2c0.5,0.3,1,0.4,1.6,0.4c0.9,0,1.7-0.3,2.2-0.9c0.6-0.6,0.9-1.4,0.9-2.4
				s-0.3-1.8-0.9-2.4c-0.6-0.6-1.3-0.9-2.2-0.9c-0.6,0-1.1,0.1-1.6,0.4s-0.8,0.7-1.1,1.2C734,454.9,733.9,455.4,733.9,456.1z"/>
			<path d="M733.9,478.9c-0.1,0-0.3-0.1-0.5-0.1l1.5-7.6c-0.8-0.1-1.6,0.2-2.2,0.7c-0.6,0.5-1,1.2-1.2,2.2c-0.2,1.1,0,2.1,0.6,2.9
				l-1.3,0.7c-0.4-0.5-0.7-1.1-0.8-1.8c-0.1-0.7-0.1-1.4,0-2.2c0.2-1,0.6-1.8,1.1-2.5c0.6-0.7,1.3-1.2,2.1-1.4
				c0.8-0.3,1.7-0.3,2.6-0.1c0.9,0.2,1.7,0.5,2.3,1.1s1.1,1.2,1.4,2c0.3,0.8,0.3,1.6,0.1,2.5s-0.5,1.6-1.1,2.3
				c-0.5,0.6-1.2,1.1-2,1.3C735.7,479.1,734.9,479.1,733.9,478.9z M738.2,475c0.2-0.8,0.1-1.5-0.3-2.2c-0.4-0.6-1-1.1-1.8-1.3
				l-1.2,6c0.8,0.1,1.5-0.1,2.1-0.6C737.7,476.4,738.1,475.8,738.2,475z"/>
			<path d="M724.5,492.7c-0.1-0.3-0.1-0.7-0.1-1.1s0.1-0.8,0.3-1.1c0.4-0.9,0.9-1.5,1.6-1.8c0.7-0.3,1.5-0.3,2.3,0.1l4.8,2l0.6-1.5
				l1.3,0.5l-0.6,1.5l1.9,0.8l-0.7,1.6l-1.9-0.8l-1,2.5l-1.3-0.5l1-2.5l-4.8-2c-0.5-0.2-0.9-0.2-1.2-0.1c-0.4,0.1-0.6,0.4-0.8,0.9
				s-0.2,1-0.1,1.4L724.5,492.7z"/>
			<path d="M704.5,519.9c0-0.3,0.1-0.7,0.3-1s0.4-0.7,0.7-0.9c0.7-0.7,1.4-1,2.1-1c0.7,0,1.4,0.3,2.1,1l3.7,3.7l1.1-1.1l1,1
				l-1.1,1.1l1.5,1.5l-1.2,1.2l-1.5-1.5l-1.9,1.9l-1-1l1.9-1.9l-3.7-3.7c-0.4-0.4-0.7-0.6-1.1-0.6c-0.4,0-0.7,0.2-1.1,0.5
				c-0.4,0.4-0.6,0.8-0.6,1.3L704.5,519.9z"/>
			<path d="M698.2,536.1c-1,0.7-2,0.9-3,0.7s-1.9-0.8-2.6-2l-3-4.6l1.4-1l2.9,4.4c0.5,0.8,1.1,1.2,1.7,1.4c0.6,0.1,1.3,0,2-0.5
				c0.8-0.5,1.2-1.2,1.4-1.9c0.1-0.7-0.1-1.5-0.6-2.4l-2.7-4.1l1.4-1l7.4,11.1l-1.4,1l-2.9-4.3c0,0.6-0.2,1.1-0.6,1.7
				C699.2,535.2,698.8,535.7,698.2,536.1z"/>
			<path d="M675.9,541.7c-0.1-0.1-0.1-0.3-0.2-0.5l7.2-3c-0.4-0.7-1-1.2-1.8-1.5c-0.8-0.2-1.6-0.2-2.5,0.2c-1.1,0.4-1.8,1.1-2.1,2.1
				l-1.3-0.7c0.2-0.6,0.6-1.2,1.1-1.7s1.1-0.9,1.8-1.2c0.9-0.4,1.8-0.5,2.7-0.5c0.9,0.1,1.7,0.4,2.3,0.9c0.7,0.5,1.2,1.2,1.5,2.1
				c0.4,0.9,0.5,1.7,0.4,2.5s-0.4,1.6-0.9,2.3s-1.2,1.2-2,1.5s-1.7,0.5-2.5,0.3c-0.8-0.1-1.6-0.4-2.2-1
				C676.7,543.3,676.2,542.6,675.9,541.7z M681.5,543.1c0.8-0.3,1.3-0.8,1.6-1.5s0.4-1.4,0.1-2.2l-5.7,2.3c0.4,0.7,1,1.2,1.7,1.4
				C680,543.5,680.8,543.4,681.5,543.1z"/>
			<path d="M646,541.9c0.9,0,1.8,0.2,2.6,0.6c0.8,0.4,1.4,1,1.8,1.7c0.4,0.7,0.6,1.6,0.6,2.5s-0.2,1.8-0.6,2.5
				c-0.4,0.7-1,1.3-1.8,1.7s-1.6,0.6-2.6,0.6s-1.8-0.2-2.5-0.6c-0.8-0.4-1.3-1-1.8-1.7c-0.4-0.7-0.6-1.6-0.6-2.5s0.2-1.8,0.6-2.5
				c0.4-0.7,1-1.3,1.8-1.7C644.2,542.1,645,541.9,646,541.9z M646,543.4c-0.6,0-1.2,0.1-1.6,0.4c-0.5,0.3-0.9,0.7-1.2,1.2
				s-0.4,1.1-0.4,1.8s0.1,1.2,0.4,1.7c0.3,0.5,0.7,0.9,1.2,1.2s1,0.4,1.6,0.4s1.2-0.1,1.7-0.4c0.5-0.3,0.9-0.7,1.2-1.2
				s0.4-1.1,0.4-1.7c0-0.7-0.1-1.2-0.4-1.8c-0.3-0.5-0.7-0.9-1.2-1.2C647.2,543.5,646.6,543.4,646,543.4z"/>
			<path d="M624.5,551.5c1,0.2,1.6-0.2,1.8-1.3l0.2-0.8l-2.7-0.5l0.3-1.4l2.7,0.5l1.6-8l1.7,0.3l-1.6,8l1.6,0.3l-0.3,1.4l-1.6-0.3
				l-0.2,0.8c-0.2,0.9-0.6,1.6-1.3,2c-0.6,0.4-1.5,0.6-2.4,0.4c-0.4-0.1-0.7-0.2-1-0.4s-0.6-0.4-0.8-0.6l0.8-1.2
				C623.6,551.2,624,551.4,624.5,551.5z"/>
			<path d="M606.3,545.5c1,0.4,1.6,0.1,2.1-1l0.3-0.8l-2.6-1.1l0.5-1.3l2.5,1l3.1-7.5l1.6,0.7l-3.1,7.5l1.5,0.6l-0.5,1.3l-1.5-0.6
				l-0.3,0.8c-0.4,0.9-0.9,1.5-1.6,1.8s-1.5,0.3-2.5-0.1c-0.4-0.1-0.7-0.3-0.9-0.5c-0.3-0.2-0.5-0.5-0.6-0.7l1-1
				C605.5,545,605.8,545.3,606.3,545.5z"/>
			<path d="M591.4,528.3c0.1-0.1,0.2-0.2,0.3-0.4l6.4,4.3c0.4-0.8,0.4-1.5,0.2-2.3s-0.8-1.4-1.5-1.9c-0.9-0.6-1.9-0.8-2.9-0.6
				l-0.2-1.5c0.6-0.2,1.3-0.2,2-0.1c0.7,0.1,1.3,0.4,2,0.9c0.8,0.6,1.5,1.2,1.9,2s0.6,1.6,0.5,2.5s-0.4,1.7-0.9,2.4
				c-0.5,0.8-1.1,1.3-1.9,1.7c-0.8,0.4-1.6,0.5-2.4,0.5c-0.8-0.1-1.6-0.3-2.4-0.8c-0.8-0.5-1.3-1.1-1.7-1.9
				c-0.4-0.7-0.5-1.5-0.4-2.4C590.5,529.9,590.8,529.1,591.4,528.3z M593.4,533.8c0.7,0.5,1.4,0.6,2.2,0.5c0.7-0.1,1.4-0.5,1.9-1.1
				l-5.1-3.4c-0.4,0.7-0.5,1.4-0.3,2.2C592.2,532.8,592.7,533.4,593.4,533.8z"/>
			<path d="M579.7,522.2c-0.6,0.2-1.2,0.2-1.8-0.1c-0.6-0.2-1.2-0.6-1.8-1.2l1.2-1.2c0.1,0.1,0.1,0.2,0.3,0.3c0.7,0.7,1.4,1,2.2,1
				s1.5-0.4,2.2-1.1l3.4-3.4l1.2,1.2l-6.7,6.7l-1.2-1.2L579.7,522.2z"/>
			<path d="M554.7,491.1c0.4,1,1.1,1.2,2.1,0.8l0.8-0.3l-1.1-2.6l1.3-0.5l1,2.5l7.5-3.1l0.7,1.6l-7.5,3.1l0.6,1.5l-1.3,0.5l-0.6-1.5
				l-0.8,0.3c-0.9,0.4-1.7,0.4-2.4,0.1s-1.3-0.9-1.7-1.8c-0.1-0.4-0.2-0.7-0.3-1.1c0-0.3,0-0.7,0.1-1h1.4
				C554.5,490.2,554.5,490.6,554.7,491.1z"/>
			<path d="M554.1,474.1c-0.6-0.2-1.1-0.5-1.5-1.1c-0.4-0.5-0.7-1.2-0.8-2l1.6-0.3c0,0.1,0,0.2,0.1,0.4c0.2,0.9,0.6,1.6,1.3,2
				c0.6,0.4,1.5,0.5,2.5,0.3l4.7-0.9l0.3,1.7l-9.4,1.9l-0.3-1.6L554.1,474.1z"/>
			<path d="M560.1,456c0,0.9-0.2,1.8-0.6,2.6c-0.4,0.8-1,1.3-1.7,1.8c-0.7,0.4-1.6,0.6-2.5,0.6s-1.8-0.2-2.5-0.6s-1.3-1-1.7-1.8
				s-0.6-1.6-0.6-2.6c0-0.9,0.2-1.8,0.6-2.5c0.4-0.8,1-1.3,1.7-1.8c0.7-0.4,1.6-0.6,2.5-0.6s1.8,0.2,2.5,0.6s1.3,1,1.7,1.8
				C559.9,454.2,560.1,455,560.1,456z M558.6,456c0-0.6-0.1-1.2-0.4-1.6c-0.3-0.5-0.7-0.9-1.2-1.2c-0.5-0.3-1.1-0.4-1.8-0.4
				s-1.2,0.1-1.7,0.4s-0.9,0.7-1.2,1.2s-0.4,1-0.4,1.6s0.1,1.2,0.4,1.7c0.3,0.5,0.7,0.9,1.2,1.2c0.5,0.3,1.1,0.4,1.7,0.4
				c0.7,0,1.2-0.1,1.8-0.4c0.5-0.3,0.9-0.7,1.2-1.2C558.5,457.2,558.6,456.6,558.6,456z"/>
			<path d="M553.3,433.4c0.2-1.2,0.8-2,1.6-2.6s1.9-0.7,3.2-0.4l5.4,1.1l-0.3,1.7l-5.2-1c-0.9-0.2-1.6-0.1-2.2,0.2
				c-0.5,0.3-0.9,0.9-1,1.6c-0.2,0.9,0,1.6,0.4,2.2s1.1,1,2.1,1.2l4.8,1l-0.3,1.7l-5.2-1c-0.9-0.2-1.6-0.1-2.2,0.2
				c-0.5,0.3-0.9,0.9-1,1.6c-0.2,0.9,0,1.6,0.4,2.2s1.1,1,2.1,1.2l4.8,1l-0.3,1.7l-9.4-1.9l0.3-1.6l1.4,0.3c-0.4-0.4-0.7-1-0.8-1.6
				s-0.2-1.3,0-2c0.1-0.7,0.4-1.3,0.8-1.9c0.4-0.5,0.9-0.9,1.5-1c-0.5-0.5-0.8-1-1-1.7C553.1,434.9,553.1,434.2,553.3,433.4z"/>
			<path d="M567.6,396.3l10.5,7l-0.8,1.2l-12,1.1l7.8,5.2l-1,1.5l-10.5-7l0.8-1.2l12-1.1l-7.8-5.2L567.6,396.3z"/>
			<path d="M578.5,388.7l1.2-1.2l6.7,6.7l-1.2,1.2L578.5,388.7z M577.8,386.8c-0.2,0.2-0.5,0.4-0.8,0.4s-0.6-0.1-0.8-0.3
				c-0.2-0.2-0.3-0.5-0.3-0.8s0.1-0.6,0.4-0.8c0.2-0.2,0.5-0.4,0.8-0.4s0.6,0.1,0.8,0.3c0.2,0.2,0.3,0.5,0.3,0.8
				S578.1,386.6,577.8,386.8z"/>
			<path d="M596.3,380.7l-0.6,2.6l1.5,2.2l-1.4,1l-7.4-11.1l1.4-1l4.8,7.1l1.7-6.8l1.7-1.2l-1.1,5.5l6.8,2.2l-1.8,1.2L596.3,380.7z"
				/>
			<path d="M616.4,370.3c0,0.1,0.1,0.3,0.2,0.5l-7.2,3c0.4,0.7,1,1.2,1.8,1.5c0.8,0.2,1.6,0.2,2.5-0.2c1.1-0.4,1.8-1.1,2.1-2.1
				l1.3,0.7c-0.2,0.6-0.6,1.2-1.1,1.7s-1.1,0.9-1.8,1.2c-0.9,0.4-1.8,0.5-2.7,0.5c-0.9-0.1-1.7-0.4-2.3-0.9
				c-0.7-0.5-1.2-1.2-1.5-2.1c-0.4-0.9-0.5-1.7-0.4-2.5s0.4-1.6,0.9-2.3c0.5-0.7,1.2-1.2,2-1.5s1.7-0.5,2.5-0.3
				c0.8,0.1,1.6,0.4,2.2,1C615.6,368.7,616.1,369.4,616.4,370.3z M610.8,368.9c-0.8,0.3-1.3,0.8-1.6,1.5s-0.4,1.4-0.1,2.2l5.7-2.3
				c-0.4-0.7-1-1.2-1.7-1.4C612.3,368.5,611.5,368.6,610.8,368.9z"/>
		</g>
	</g>
</g>
<g transform="translate(0.000000,375.000000) scale(0.100000,-0.100000)">
	<path d="M997.8-318.3c-12.6-13.4-22-24.4-22-25.2c0,0,8.6-0.8,18.9-0.8c12.6,0,17.3,3.1,14.2,11s0,10.2,11.8,7.1
		c13.4-3.9,15.7-0.8,14.9,14.2C1034.8-286.8,1023.8-288.4,997.8-318.3z"/>
	<path d="M1054.4-309.6c8.6-14.9,9.4-15.7,18.9-2.4c5.5,7.1,14.2,11,18.9,7.9c4.7-2.4,10.2-1.6,13.4,3.1s-7.9,7.9-27.5,7.9
		C1048.1-293.1,1046.6-293.9,1054.4-309.6z"/>
	<path d="M1117.3-300.2c0-4.7,3.9-10.2,7.9-12.6c4.7-2.4,7.9,0.8,7.9,7.1c0,7.1-3.1,12.6-7.9,12.6
		C1121.3-293.1,1117.3-296.3,1117.3-300.2z"/>
	<path d="M2914.6-300.2c-5.5-7.9,17.3-29.1,23.6-22c7.1,6.3-2.4,29.1-11.8,29.1C2922.4-293.1,2916.9-296.3,2914.6-300.2z"/>
	<path d="M2958.6-304.1c6.3-6.3,13.4-7.9,18.9-3.9c3.9,3.1,14.9,4.7,24.4,2.4c8.6-2.4,18.1-1.6,20.4,3.1c3.1,3.9-12.6,7.9-34.6,8.6
		C2953.9-293.1,2950-294.7,2958.6-304.1z"/>
	<path d="M3089.1-298.6c4.7-1.6,7.9-7.1,4.7-11c-2.4-3.9-0.8-7.1,3.1-7.1c11,0,5.5-32.2-6.3-39.3c-6.3-3.9-9.4-9.4-7.1-11.8
		c3.1-2.4,12.6,2.4,22.8,10.2c14.9,11.8,16.5,17.3,9.4,30.7c-6.3,11-6.3,18.1,0,24.4c7.1,7.1,3.9,9.4-13.4,8.6
		C3089.1-293.9,3083.6-296.3,3089.1-298.6z"/>
	<path d="M3151.2-300.2c1.6-1.6-3.1-10.2-11-18.1c-10.2-11-10.2-14.2-1.6-14.2c6.3,0-1.6-11-16.5-23.6c-22-18.1-25.9-24.4-17.3-32.2
		c7.9-8.6,13.4-7.1,27.5,7.1c15.7,16.5,16.5,18.1,1.6,12.6c-11.8-3.9-13.4-3.1-7.1,3.9c9.4,10.2,37,3.1,29.9-7.9
		c-2.4-3.9-0.8-12.6,3.1-19.7c6.3-11,7.9-11,16.5,0c8.6,10.2,8.6,14.9,0.8,24.4c-4.7,6.3-6.3,15.7-3.1,20.4c3.9,7.1,1.6,7.9-8.6,3.9
		c-13.4-4.7-14.2-3.9-2.4,8.6c11,12.6,11,14.9-0.8,25.9C3155.1-302.6,3150.4-298.6,3151.2-300.2z"/>
	<path d="M3203.9-308.1c0-12.6,3.1-13.4,14.2-7.9c7.9,3.9,14.2,11,14.2,14.9c0,4.7-6.3,7.9-14.2,7.9
		C3209.4-293.1,3203.9-298.6,3203.9-308.1z"/>
	<path d="M3255.8-298.6c0-3.9,3.9-11.8,7.9-18.1c5.5-9.4,9.4-9.4,17.3-1.6c7.9,7.9,7.9,11.8-1.6,17.3
		C3265.2-291.6,3255.8-290.8,3255.8-298.6z"/>
	<path d="M3510.5-304.9c-9.4-7.1-11-11-4.7-11.8c5.5,0,7.9-3.9,4.7-8.6c-3.9-6.3-0.8-6.3,11,0c22.8,11.8,24.4,11,22-10.2
		c-3.1-25.2,17.3-18.1,23.6,8.6c6.3,23.6-7.9,41.7-22,27.5c-11.8-11.8-25.2-12.6-18.1-1.6C3534.1-290,3528.6-291.6,3510.5-304.9z"/>
	<path d="M3708.6-300.2c-2.4-3.9,4.7-6.3,14.9-6.3c11,0,19.7,2.4,19.7,6.3s-7.1,7.1-14.9,7.1C3719.6-293.1,3711-296.3,3708.6-300.2z
		"/>
	<path d="M4034.1-298.6c6.3-2.4,15.7-9.4,21.2-15.7c7.9-10.2,10.2-9.4,18.1,4.7c7.9,15.7,6.3,16.5-21.2,15.7
		C4035.7-293.9,4027.8-296.3,4034.1-298.6z"/>
	<path d="M4115.9-306.5c-3.1-7.9-4.7-18.1-3.9-23.6c0.8-4.7-2.4-11.8-7.1-14.2c-4.7-3.1-8.6-0.8-7.1,4.7
		c2.4,22.8-0.8,29.9-13.4,25.2c-8.6-3.1-11-11-7.9-25.9c3.1-18.9,1.6-21.2-14.9-18.9c-10.2,0.8-23.6-3.9-29.1-11
		c-9.4-11.8-8.6-12.6,3.9-2.4c11,8.6,13.4,8.6,13.4,0c0-6.3-6.3-14.9-14.9-20.4c-15.7-10.2-15.7-51.1,0-70c6.3-7.9,6.3-11,0.8-11
		c-4.7,0-10.2,3.1-13.4,7.9c-7.9,12.6-37.7-3.9-39.3-22c-0.8-14.2,0.8-15.7,11-7.1c9.4,7.1,10.2,7.1,5.5,0
		c-3.1-5.5-2.4-16.5,2.4-24.4c3.9-7.9,4.7-18.9,0.8-25.2c-7.9-12.6-1.6-33,8.6-27.5c3.1,2.4,2.4-6.3-1.6-19.7
		c-8.6-24.4-18.1-29.9-26.7-15.7c-3.9,6.3-8.6,5.5-15.7,0c-15.7-12.6-31.4-2.4-18.9,12.6c4.7,6.3,6.3,11,2.4,11
		c-3.9,0-16.5-11.8-28.3-26.7c-20.4-25.2-21.2-28.3-9.4-40.1c9.4-9.4,14.9-10.2,23.6-3.1c10.2,7.9,14.2,4.7,11.8-10.2
		c0-3.1,6.3-9.4,14.9-14.2c8.6-4.7,14.2-11.8,11.8-16.5c-7.1-10.2,12.6-8.6,35.4,3.9c30.7,17.3,47.2,3.9,47.2-39.3
		c0-30.7-2.4-36.2-20.4-42.5c-25.9-10.2-24.4-10.2-29.1,7.9c-2.4,8.6-9.4,15.7-16.5,15.7c-14.9,0-16.5-8.6-3.9-21.2
		c6.3-6.3,6.3-13.4,0.8-22.8c-7.1-12.6-8.6-12.6-18.1,3.1c-9.4,14.9-46.4,25.2-46.4,12.6c0-8.6,20.4-24.4,43.2-32.2
		c19.7-6.3,23.6-11.8,22-30.7c-3.9-73.9-3.1-90.4,5.5-101.4c14.2-17.3,23.6-7.1,23.6,28.3c0,18.9,3.1,29.9,7.9,26.7
		c4.7-2.4,7.9-11.8,7.9-20.4c0-7.9,5.5-14.9,11.8-14.9c14.2,0,14.9,9.4,2.4,22c-15.7,15.7,9.4,11.8,26.7-3.9
		c12.6-11,16.5-11.8,22-2.4c4.7,7.1,2.4,14.9-7.1,22.8c-7.1,7.1-11.8,21.2-10.2,32.2c0.8,11,3.9,40.9,5.5,66.8
		c1.6,25.2,8.6,57.4,14.9,70.8c6.3,12.6,14.2,34.6,17.3,47.2c3.9,16.5,6.3,19.7,8.6,10.2c5.5-23.6,18.1-15.7,18.1,11
		c0,13.4,11.8,64.5,26.7,111.6c14.9,48,34.6,117.1,44.8,154.1c9.4,37,18.9,71.5,21.2,77c2.4,7.1-11.8,9.4-55.8,9.4
		C4132.4-293.1,4121.4-295.5,4115.9-306.5z M3947.6-632.8c0-3.1-8.6-5.5-19.7-4.7c-18.1,1.6-18.1,2.4-6.3,15.7
		c10.2,11,14.2,12.6,19.7,4.7C3944.5-622.5,3947.6-629.6,3947.6-632.8z"/>
	<path d="M2536.4-312c-8.6-5.5-18.9-11-23.6-11c-14.9-1.6-12.6-22.8,2.4-26.7c21.2-5.5,30.7,1.6,37,27.5
		C2558.4-297.8,2557.6-297.1,2536.4-312z"/>
	<path d="M3396.5-304.9c-0.8-3.9-1.6-12.6-2.4-18.9c0-6.3-5.5-12.6-11.8-14.9s-8.6,0-5.5,5.5c3.1,4.7,1.6,8.6-2.4,8.6
		c-10.2,0-11-7.9-2.4-22c4.7-7.1,11-5.5,23.6,8.6c11.8,12.6,14.2,21.2,9.4,29.1C3401.2-302.6,3397.3-300.2,3396.5-304.9z"/>
	<path d="M3769.2-304.9c3.1-3.9,0.8-11.8-5.5-18.9c-12.6-14.9-21.2-48-12.6-48c9.4,0,24.4,20.4,18.1,25.9
		c-8.6,9.4,13.4,27.5,28.3,23.6c7.9-2.4,17.3,0.8,21.2,6.3c3.9,7.1,1.6,7.9-7.9,4.7c-7.9-3.1-21.2-1.6-30.7,3.1
		C3770.7-302.6,3765.2-301.8,3769.2-304.9z"/>
	<path d="M947.5-320.6c-7.9-6.3-11-11.8-6.3-11.8c3.9,0,14.9,5.5,23.6,11.8c7.9,6.3,11,11.8,6.3,11.8
		C967.2-308.8,956.2-314.4,947.5-320.6z"/>
	<path d="M3024.6-315.9c-7.9-11.8-1.6-48,7.1-44.8c3.9,1.6,7.1,7.9,5.5,13.4c-1.6,6.3-3.1,17.3-3.9,24.4
		C3032.5-307.3,3030.9-305.7,3024.6-315.9z"/>
	<path d="M3444.5-317.5c0-3.9,3.9-5.5,7.9-3.1c4.7,2.4,7.9,6.3,7.9,8.6c0,1.6-3.1,3.1-7.9,3.1
		C3448.4-308.8,3444.5-312.8,3444.5-317.5z"/>
	<path d="M3979.1-316.7c-8.6-5.5-9.4-9.4-3.1-15.7s11-5.5,18.1,3.1C4005-315.9,3994.8-307.3,3979.1-316.7z"/>
	<path d="M2409-334c0-5.5-3.1-22-5.5-35.4c-5.5-26.7,2.4-33.8,18.1-14.9c4.7,5.5,6.3,21.2,3.9,35.4
		C2420.8-324.6,2409.8-315.1,2409-334z"/>
	<path d="M2988.5-333.2c0-3.9,3.9-5.5,7.9-3.1c4.7,2.4,7.9,6.3,7.9,8.6c0,1.6-3.1,3.1-7.9,3.1
		C2992.4-324.6,2988.5-328.5,2988.5-333.2z"/>
	<path d="M3286.4-345.8c-10.2-11-14.2-18.1-8.6-14.9c4.7,3.1,9.4,2.4,9.4-2.4c0-3.9-4.7-9.4-9.4-11.8c-5.5-2.4-1.6-2.4,9.4,0
		c11,3.1,17.3,2.4,14.2-0.8c-7.9-7.9,11.8-25.9,22.8-22c5.5,2.4,10.2,7.1,10.2,11c0,3.1-6.3,3.9-13.4,1.6
		c-12.6-4.7-12.6-3.9-3.1,7.9c7.9,10.2,7.9,13.4,0.8,13.4c-6.3,0-8.6,7.1-6.3,19.7C3317.9-319.1,3310.8-319.1,3286.4-345.8z"/>
	<path d="M3865.1-332.4c-2.4-3.9-3.1-11,0-14.9c2.4-3.9,0.8-9.4-3.1-12.6c-4.7-2.4-6.3-9.4-3.1-16.5c6.3-17.3,22,0,24.4,27.5
		C3884.7-325.4,3875.3-316.7,3865.1-332.4z"/>
	<path d="M3917.8-334.8c-6.3-7.9-4.7-10.2,5.5-10.2c8.6,0,13.4,4.7,11,10.2s-4.7,10.2-6.3,10.2
		C3927.2-324.6,3922.5-329.3,3917.8-334.8z"/>
	<path d="M3789.6-352.9c-16.5-17.3-16.5-18.9-3.1-14.2c14.2,5.5,14.9,4.7,3.9-9.4c-11-14.2-11-14.2,1.6-3.9
		c7.9,5.5,11.8,13.4,9.4,18.1c-2.4,3.9,0,11.8,4.7,18.1C3822.6-324.6,3810-330.9,3789.6-352.9z"/>
	<path d="M2552.1-348.2c-3.1-4.7-3.9-9.4-3.1-10.2c1.6-0.8,11.8-6.3,21.2-11.8c22-12.6,32.2-6.3,20.4,12.6
		C2579.7-341.1,2559.2-336.4,2552.1-348.2z"/>
	<path d="M3475.9-355.2c-17.3-13.4-19.7-14.2-28.3-2.4c-4.7,7.1-14.2,10.2-22,7.1c-11.8-4.7-11.8-6.3,0.8-21.2
		c7.9-8.6,18.1-15.7,24.4-15.7c5.5,0,7.9-3.9,4.7-8.6c-3.1-5.5-0.8-7.9,5.5-5.5s12.6,10.2,14.2,18.9c0.8,7.9,7.9,21.2,14.9,29.1
		C3505.8-336.4,3500.3-337.1,3475.9-355.2z"/>
	<path d="M3691.3-364.7c-18.1-18.9-19.7-22.8-7.1-18.1s11,0-7.9-20.4c-12.6-14.2-18.9-23.6-13.4-20.4c5.5,3.1,9.4,1.6,9.4-3.9
		c0-6.3,5.5-4.7,14.9,3.9s13.4,21.2,11.8,36.2c-1.6,15.7,1.6,25.2,11,30.7c7.1,3.9,11,9.4,8.6,11.8
		C3716.5-342.7,3703.9-351.3,3691.3-364.7z"/>
	<path d="M2929.5-354.4c-11-7.9-11-28.3,0-38.5c7.1-6.3,9.4-2.4,10.2,18.1C2941.3-345.8,2941.3-345.8,2929.5-354.4z"/>
	<path d="M2642.5-364.7c0-3.9,3.9-5.5,7.9-3.1c4.7,2.4,7.9,6.3,7.9,8.6c0,1.6-3.1,3.1-7.9,3.1C2646.5-356,2642.5-359.9,2642.5-364.7
		z"/>
	<path d="M3660.7-364.7c-8.6-13.4,0.8-16.5,11.8-3.1c6.3,7.1,6.3,11.8,1.6,11.8C3669.3-356,3663-359.9,3660.7-364.7z"/>
	<path d="M2608-375.7c3.1-6.3,6.3-11.8,7.9-11.8c1.6,0,3.1,5.5,3.1,11.8s-3.1,11.8-7.9,11.8C2607.2-363.9,2605.6-369.4,2608-375.7z"
		/>
	<path d="M3964.9-373.3c-12.6-12.6-11.8-25.9,1.6-37c7.9-6.3,12.6-7.1,16.5-0.8c2.4,3.9-0.8,10.2-7.1,12.6
		c-9.4,3.9-10.2,7.9-3.9,19.7C3980.7-361.5,3978.3-359.9,3964.9-373.3z"/>
	<path d="M3240.1-379.6c-7.1-4.7-7.9-7.9-2.4-7.9c4.7,0,11.8,3.9,14.2,7.9C3258.1-370.2,3255-370.2,3240.1-379.6z"/>
	<path d="M3394.9-377.2c-3.1-2.4-5.5-11.8-5.5-19.7c0-7.9-3.1-14.2-6.3-14.2c-12.6,0-5.5-30.7,8.6-34.6c18.1-4.7,33,29.1,21.2,49.5
		c-3.9,7.9-4.7,16.5-2.4,19.7c2.4,2.4,1.6,4.7-3.1,4.7C3403.6-371.7,3397.3-374.1,3394.9-377.2z"/>
	<path d="M3513.7-395.3c-14.9-13.4-21.2-23.6-14.9-23.6c8.6,0,7.9-3.9-3.1-15.7c-14.2-15.7-8.6-20.4,14.9-16.5
		c4.7,0.8,15.7-2.4,25.2-7.9c15.7-7.9,22-6.3,49.5,15.7c36.2,29.1,37.7,31.4,18.9,30.7c-7.9,0-19.7,1.6-25.9,4.7
		c-8.6,3.9-12.6,0-13.4-11c-0.8-8.6,1.6-14.2,6.3-11.8c3.9,3.1,7.1,1.6,7.1-2.4c0-11-19.7-16.5-31.4-9.4c-5.5,3.9-8.6,14.9-6.3,26.7
		c2.4,11,0.8,20.4-3.9,20.4c-3.9,0-3.1,5.5,2.4,11.8C3555.3-363.9,3540.4-370.2,3513.7-395.3z"/>
	<path d="M2660.6-401.6c-5.5-3.1-6.3-10.2-3.1-15.7c4.7-7.9,7.9-7.9,15.7,1.6C2683.4-403.2,2674.8-393,2660.6-401.6z"/>
	<path d="M2404.3-418.1c-1.6-7.9-0.8-19.7,3.1-25.2c8.6-14.2,0.8-39.3-15.7-51.9c-11-7.9-10.2-8.6,3.9-5.5
		c17.3,4.7,17.3,3.9,18.1-151.7c1.6-180.8,8.6-213.1,57.4-264.2c19.7-20.4,33-29.1,35.4-23.6s-1.6,15.7-8.6,22
		c-35.4,36.2-49.5,110.1-59.8,319.2C2431.1-437.8,2417.7-367.8,2404.3-418.1z"/>
	<path d="M3718.9-416.6c-10.2-12.6-9.4-13.4,3.1-3.1c12.6,10.2,16.5,16.5,10.2,16.5C3730.6-403.2,3724.4-409.5,3718.9-416.6z"/>
	<path d="M3450-425.2c-13.4-14.2-13.4-16.5-1.6-28.3c7.1-7.1,14.9-12.6,17.3-12.6c3.1,0,2.4,2.4,0,5.5c-3.1,2.4-2.4,8.6,1.6,13.4
		c3.9,4.7,4.7,14.9,1.6,22.8C3464.1-411.1,3462.6-411.1,3450-425.2z"/>
	<path d="M2964.9-427.6c0-3.9,3.9-5.5,7.9-3.1c4.7,2.4,7.9,6.3,7.9,8.6c0,1.6-3.1,3.1-7.9,3.1
		C2968.8-418.9,2964.9-422.8,2964.9-427.6z"/>
	<path d="M3262.9-432.3c-10.2-12.6-9.4-13.4,3.1-3.1c7.1,5.5,13.4,11.8,13.4,13.4C3279.4-415.8,3273.1-419.7,3262.9-432.3z"/>
	<path d="M3734.6-422.8c-0.8-2.4-1.6-7.1-2.4-11c0-3.9-3.1-10.2-6.3-13.4c-8.6-8.6-7.9-20.4,0.8-14.9c8.6,4.7,48-11.8,48-20.4
		c0-3.1,7.1-3.9,15.7-1.6c19.7,5.5,19.7,11.8,0.8,25.9c-8.6,5.5-14.2,13.4-11.8,17.3c2.4,3.1-1.6,3.9-7.9,1.6
		c-7.1-2.4-12.6-1.6-12.6,3.1C3758.9-428.3,3736.1-416.6,3734.6-422.8z"/>
	<path d="M2725.1-442.5c-2.4-3.9,0.8-7.9,7.9-7.9s10.2,3.9,7.9,7.9c-2.4,4.7-6.3,7.9-7.9,7.9
		C2731.4-434.6,2727.5-437.8,2725.1-442.5z"/>
	<path d="M3597.8-442.5c-7.1-11,10.2-39.3,23.6-39.3c15.7,0,14.9,36.2-0.8,42.5C3604.1-433.1,3603.3-433.1,3597.8-442.5z"/>
	<path d="M3681.1-441.7c-7.9-5.5-8.6-10.2-1.6-23.6c5.5-9.4,7.9-19.7,5.5-22.8c-1.6-3.1,6.3-6.3,17.3-6.3c11.8-0.8,16.5,0.8,11,2.4
		c-4.7,2.4-7.9,7.1-5.5,11C3715.7-468.4,3692.9-434.6,3681.1-441.7z"/>
	<path d="M2752.6-450.4c0-3.9,3.9-7.9,7.9-7.9c4.7,0,7.9,3.9,7.9,7.9c0,4.7-3.1,7.9-7.9,7.9C2756.5-442.5,2752.6-445.6,2752.6-450.4
		z"/>
	<path d="M3936.6-457.4c-18.1-19.7-0.8-32.2,17.3-13.4c12.6,12.6,12.6,13.4-2.4,7.9c-14.2-5.5-14.2-4.7-4.7,7.1
		C3961.8-437.8,3953.1-438.6,3936.6-457.4z"/>
	<path d="M2786.4-466.1c-18.1-7.1-25.2-23.6-11-23.6c7.9,0,32.2,22,32.2,28.3C2807.7-457.4,2808.4-457.4,2786.4-466.1z"/>
	<path d="M2843.8-470.8c-7.1-18.9-5.5-34.6,3.9-34.6c4.7,0,6.3,7.1,3.1,15.7c-3.1,8.6-1.6,15.7,3.1,15.7c4.7,0,8.6,3.9,8.6,7.9
		C2862.7-453.5,2849.3-456.7,2843.8-470.8z"/>
	<path d="M3520.7-479.5c-7.9-7.1-7.1-18.1,1.6-18.1c3.9,0,8.6,5.5,11.8,11.8C3538-473.9,3530.2-470,3520.7-479.5z"/>
	<path d="M3491.6-497.5c0-14.9,2.4-16.5,9.4-9.4c7.1,7.1,7.1,11.8,0,18.9C3494-481,3491.6-482.6,3491.6-497.5z"/>
	<path d="M3837.6-501.5c-8.6-10.2-7.9-11,3.9-7.1c11,4.7,12.6,3.1,7.9-4.7c-3.9-6.3-3.1-8.6,2.4-4.7c4.7,3.1,7.1,10.2,3.9,16.5
		C3850.1-486.5,3849.4-486.5,3837.6-501.5z"/>
	<path d="M3924-518c-16.5-17.3-17.3-19.7-3.9-12.6c8.6,3.9,18.1,7.9,22,8.6c6.3,0.8,7.9,5.5,3.9,17.3
		C3944.5-499.9,3934.3-506.2,3924-518z"/>
	<path d="M3657.5-539.2c-10.2-16.5-9.4-16.5,3.9-3.9c7.9,7.9,12.6,15.7,10.2,17.3C3669.3-523.5,3663-529.8,3657.5-539.2z"/>
	<path d="M2997.9-546.3c-5.5-5.5-9.4-14.9-9.4-21.2c0-8.6,3.1-7.9,15.7,3.1c16.5,14.9,20.4,27.5,9.4,27.5
		C3010.5-536.8,3003.4-540.8,2997.9-546.3z"/>
	<path d="M3818.7-556.5c3.1-6.3,6.3-11.8,7.9-11.8c1.6,0,3.1,5.5,3.1,11.8s-3.1,11.8-7.9,11.8
		C3817.9-544.7,3816.3-550.2,3818.7-556.5z"/>
	<path d="M3768.4-562c-4.7-6.3-5.5-14.9-2.4-20.4c4.7-7.9,7.9-7.9,14.9,0c4.7,6.3,5.5,14.9,2.4,20.4
		C3778.6-554.1,3775.5-554.1,3768.4-562z"/>
	<path d="M3928-559.6c-2.4-3.9-1.6-9.4,2.4-11.8s7.1,0.8,7.1,7.1C3937.4-551,3935.1-549.4,3928-559.6z"/>
	<path d="M4195.3-568.3c2.4-3.9,6.3-7.9,8.6-7.9c1.6,0,3.1,3.9,3.1,7.9c0,4.7-3.9,7.9-8.6,7.9
		C4194.5-560.4,4192.9-563.6,4195.3-568.3z"/>
	<path d="M3979.1-587.2c0-1.6,5.5-5.5,12.6-7.9c6.3-2.4,9.4-1.6,7.1,3.1C3994-584,3979.1-580.9,3979.1-587.2z"/>
	<path d="M3173.2-623.3c2.4-3.9,10.2-7.9,16.5-7.9s11-6.3,11-14.2c0-11,6.3-14.2,26.7-14.2c33,0,29.9,7.9-13.4,28.3
		C3178.7-613.9,3166.2-611.5,3173.2-623.3z"/>
	<path d="M2299.8-645.3c1.6-13.4,4.7-27.5,7.1-30.7c7.9-7.1,5.5,22-2.4,40.9C2299-622.5,2298.2-624.9,2299.8-645.3z"/>
	<path d="M4183.5-632c0-3.9,3.9-5.5,7.9-3.1c4.7,2.4,7.9,6.3,7.9,8.6c0,1.6-3.1,3.1-7.9,3.1C4187.4-623.3,4183.5-627.3,4183.5-632z"
		/>
	<path d="M3483.8-643.8c0.8-14.2,21.2-44,25.9-37.7c2.4,3.9-2.4,15.7-11,25.9C3490.9-645.3,3483.8-640.6,3483.8-643.8z"/>
	<path d="M2372.1-653.2c-1.6-3.1-0.8-11,3.9-17.3c5.5-9.4,7.1-7.9,7.1,6.3C2383.1-646.1,2379.2-642.2,2372.1-653.2z"/>
	<path d="M3427.2-683.9c-24.4-3.9-28.3-18.9-10.2-33.8c6.3-5.5,11.8-13.4,11.8-18.1c0-4.7-2.4-5.5-5.5-3.1
		c-7.1,7.9-35.4-40.9-29.1-51.1c3.1-5.5,1.6-6.3-3.1-3.1c-5.5,3.1-10.2,0.8-10.2-4.7c-0.8-5.5-1.6-13.4-3.1-18.1
		c-0.8-3.9-2.4-12.6-2.4-18.1c-0.8-5.5-4.7-8.6-8.6-6.3s-6.3-1.6-5.5-9.4c0-7.1-3.1-12.6-8.6-11.8c-4.7,1.6-20.4-17.3-33.8-40.9
		c-25.2-43.2-45.6-58.2-34.6-25.9c7.1,22,51.9,101.4,86.5,151.7c30.7,45.6,34.6,66.8,10.2,66.8c-11,0-14.9-3.9-12.6-10.2
		c2.4-6.3-7.1-29.9-19.7-53.5c-13.4-23.6-31.4-56.6-40.9-73.9c-9.4-17.3-26.7-46.4-38.5-65.3c-35.4-54.2-34.6-55.8,3.9-51.1
		c18.9,2.4,52.7,12.6,75.5,22.8s45.6,18.9,51.1,18.9s16.5,4.7,25.2,10.2c8.6,6.3,44,20.4,78.6,32.2c62.1,22,104.6,48,105.4,64.5
		c0.8,3.9-11.8,19.7-26.7,34.6c-21.2,21.2-25.2,29.1-18.9,40.9c6.3,12.6,4.7,14.2-16.5,14.2c-13.4,0-31.4,3.9-40.9,8.6
		c-11,6.3-22,5.5-39.3-1.6c-19.7-7.9-24.4-7.9-30.7,1.6c-11,17.3-8.6,22.8,8.6,22.8c8.6,0,15.7,3.9,15.7,7.9c0,4.7-2.4,7.1-5.5,7.1
		C3450.8-679.9,3439-682.3,3427.2-683.9z M3447.6-779c-8.6-11.8-18.1-27.5-21.2-34.6c-7.9-22-45.6-78.6-49.5-74.7
		c-3.1,3.1,53.5,109.3,70,129.7C3461.8-738.9,3462.6-757.8,3447.6-779z"/>
	<path d="M4124.5-686.2c-2.4-3.9-0.8-7.9,3.1-7.9c4.7,0,8.6,3.9,8.6,7.9c0,4.7-1.6,7.9-3.1,7.9
		C4130.8-678.4,4126.9-681.5,4124.5-686.2z"/>
	<path d="M3920.9-706.7c-3.9-10.2-3.1-11,5.5-4.7c6.3,5.5,12.6,7.1,14.9,4.7c2.4-2.4,7.1-0.8,10.2,3.9c2.4,4.7-1.6,8.6-10.2,8.6
		C3932.7-694.1,3923.3-699.6,3920.9-706.7z"/>
	<path d="M3654.4-718.5c5.5-18.9-10.2-32.2-30.7-25.9c-7.1,1.6-14.9,0-17.3-3.9c-6.3-10.2,22.8-18.9,41.7-12.6
		c22,7.1,25.2-18.9,7.9-80.2c-8.6-29.1-20.4-72.3-26.7-95.1c-7.1-25.9-22-54.2-38.5-72.3c-41.7-46.4-49.5-62.9-54.2-111.6
		c-3.1-36.2-2.4-45.6,7.1-45.6c6.3,0,11,3.1,11,7.1c0,3.9,6.3,8.6,14.2,10.2c8.6,1.6,13.4,10.2,13.4,25.9c0,17.3,3.9,23.6,12.6,22.8
		c7.9-0.8,17.3,6.3,22.8,15.7c4.7,8.6,17.3,22.8,28.3,30.7c18.1,13.4,18.9,13.4,18.9,0c0.8-18.9,23.6,33.8,23.6,53.5
		c0,17.3,3.1,18.1,23.6,7.1c11.8-6.3,14.2-5.5,11,2.4c-3.1,8.6,0.8,10.2,15.7,7.9c12.6-2.4,20.4-0.8,20.4,4.7s-3.1,7.1-7.9,4.7
		c-11-6.3-10.2-0.8,3.9,33c9.4,22,35.4,127.4,35.4,143.1c0,1.6-7.9,0.8-18.1-2.4c-13.4-3.1-19.7,0-25.2,13.4
		c-7.9,18.1-18.1,19.7-49.5,10.2c-15.7-5.5-17.3-3.9-15.7,20.4c1.6,14.2,6.3,28.3,10.2,32.2c9.4,7.1-9.4,21.2-29.1,21.2
		C3654.4-701.9,3651.2-706.7,3654.4-718.5z M3733.8-827.7c-5.5-8.6-13.4-15.7-17.3-15.7s-0.8,7.1,7.1,15.7
		c7.9,8.6,15.7,15.7,17.3,15.7C3742.4-812,3739.3-819.1,3733.8-827.7z M3735.4-945.7c0-3.9-1.6-7.9-3.1-7.9c-2.4,0-6.3,3.9-8.6,7.9
		c-2.4,4.7-0.8,7.9,3.1,7.9C3731.4-937.8,3735.4-940.9,3735.4-945.7z"/>
	<path d="M3767.6-730.2c0-8.6,2.4-11,4.7-4.7c2.4,5.5,1.6,12.6-0.8,14.9C3769.2-716.9,3766.8-721.6,3767.6-730.2z"/>
	<path d="M3841.5-741.3c2.4-3.9,7.9-7.9,12.6-7.9c3.9,0,7.1,3.9,7.1,7.9c0,4.7-5.5,7.9-12.6,7.9
		C3842.3-733.4,3839.1-736.5,3841.5-741.3z"/>
	<path d="M3869-764.8c0-8.6,4.7-15.7,11-15.7c5.5,0,12.6,7.1,14.9,15.7c3.1,11.8,0,15.7-11,15.7C3874.5-749.1,3869-754.6,3869-764.8
		z"/>
	<path d="M3751.1-764.1c0-3.9,5.5-8.6,11.8-11.8c7.1-2.4,11.8,0,11.8,7.1c0,6.3-5.5,11.8-11.8,11.8S3751.1-760.1,3751.1-764.1z"/>
	<path d="M3810-789.2c-7.9-11.8,2.4-19.7,12.6-9.4c5.5,5.5,5.5,10.2,0.8,13.4C3818.7-782.9,3812.4-784.5,3810-789.2z"/>
	<path d="M2320.2-808.1c0-6.3,3.9-11.8,7.9-11.8c4.7,0,7.9,5.5,7.9,11.8s-3.1,11.8-7.9,11.8C2324.1-796.3,2320.2-801.8,2320.2-808.1
		z"/>
	<path d="M3894.2-806.5c-9.4-11-12.6-33.8-11-84.1c1.6-29.9,3.1-33,12.6-23.6c11,12.6,22.8,117.9,12.6,117.9
		C3905.2-796.3,3898.9-801,3894.2-806.5z"/>
	<path d="M4149.7-804.9c5.5-5.5,11.8-7.9,14.2-5.5c2.4,2.4-1.6,7.1-9.4,9.4C4143.4-796.3,4142.6-797.1,4149.7-804.9z"/>
	<path d="M3841.5-813.6c-18.1-55-19.7-77.8-7.1-102.2c16.5-32.2,23.6-20.4,29.1,55c3.9,46.4,2.4,56.6-7.1,56.6
		C3850.1-804.1,3843.1-808.9,3841.5-813.6z"/>
	<path d="M4105.7-826.9c-6.3-4.7-7.1-8.6-2.4-11.8c4.7-2.4,11-0.8,13.4,3.9C4123.7-823.8,4118.2-819.1,4105.7-826.9z"/>
	<path d="M4100.9-859.2c-2.4-3.9-0.8-7.9,3.1-7.9c4.7,0,8.6,3.9,8.6,7.9c0,4.7-1.6,7.9-3.1,7.9
		C4107.2-851.3,4103.3-854.5,4100.9-859.2z"/>
	<path d="M2396.5-864.7c-3.1-2.4-5.5-8.6-5.5-13.4c0-4.7,3.9-3.9,9.4,1.6c4.7,4.7,7.1,11,5.5,13.4
		C2403.5-860.8,2398.8-861.5,2396.5-864.7z"/>
	<path d="M2351.7-874.9c0-3.9,5.5-7.9,12.6-7.9c6.3,0,9.4,3.9,7.1,7.9c-2.4,4.7-7.9,7.9-12.6,7.9
		C2354.8-867,2351.7-870.2,2351.7-874.9z"/>
	<path d="M3554.5-881.2c-6.3-2.4-14.9-8.6-18.1-14.9c-3.9-6.3-13.4-8.6-25.9-5.5c-14.9,3.9-18.1,2.4-14.2-7.1
		c5.5-14.2-25.2-48-53.5-60.5c-10.2-4.7-28.3-14.9-41.7-22.8c-12.6-7.9-25.9-12.6-29.9-11c-3.1,2.4-21.2-3.1-39.3-11.8
		c-37.7-17.3-167.5-59-183.2-59c-6.3,0-11-3.1-11-7.1c0-3.1,8.6-6.3,18.9-6.3c25.9,0,67.6-36.2,67.6-59c0-28.3,7.9-42.5,21.2-37.7
		c10.2,3.9,10.2,2.4,3.1-11.8c-11-19.7-11-25.2-0.8-25.2c3.9,0,10.2,9.4,12.6,22c7.9,31.4,10.2,33.8,25.9,23.6
		c11.8-7.1,17.3-6.3,27.5,3.9c13.4,13.4,16.5,29.1,5.5,29.1c-3.9,0-8.6-5.5-11.8-11.8c-2.4-6.3-7.9-11.8-12.6-11.8
		c-14.2,0-8.6,22.8,7.9,33c18.9,12.6,20.4,35.4,2.4,55c-11.8,13.4-11.8,14.2,0,14.2c13.4,0,37-37,37-57.4c0-6.3,8.6-17.3,18.9-23.6
		c16.5-11,19.7-11,23.6-1.6c2.4,6.3,9.4,11.8,16.5,11.8c9.4,0,9.4,6.3-4.7,40.1c-8.6,22.8-13.4,42.5-11,44.8
		c4.7,5.5,4.7,4.7,30.7-33c11-16.5,20.4-37,20.4-44.8s3.9-16.5,8.6-19.7c6.3-3.1,7.1,2.4,3.9,18.1c-3.9,16.5,0,33,14.9,59.8
		c11.8,20.4,24.4,37,28.3,37c4.7,0,13.4,12.6,19.7,28.3c11,25.9,11,29.9-1.6,43.2c-17.3,19.7,0.8,20.4,22,1.6
		c12.6-11,16.5-11.8,22-2.4c3.9,6.3,3.1,17.3-1.6,25.9c-3.9,8.6-4.7,17.3-1.6,20.4C3578.9-895.3,3580.5-872.5,3554.5-881.2z
		 M3460.2-992.8c0-3.9-7.9-7.9-17.3-7.9c-14.9,0-15.7,1.6-6.3,7.9C3451.5-982.6,3460.2-982.6,3460.2-992.8z"/>
	<path d="M1004.1-951.2c-71.5-84.9-106.9-103-146.2-73.9c-19.7,14.2-23.6,14.9-32.2,3.9c-5.5-7.1-9.4-29.1-9.4-50.3
		c0.8-48.7,33.8-110.1,78.6-147c18.1-14.9,52.7-51.9,77-81c67.6-82.6,141.5-117.9,246.9-117.9c68.4,0,96.7,9.4,149.4,47.2
		c42.5,31.4,92.8,54.2,117.1,55c20.4,0,71.5,27.5,128.9,68.4c43.2,31.4,69.2,79.4,69.2,127.4c0,29.1-1.6,33-13.4,28.3
		c-64.5-25.9-136-1.6-217.8,73.9c-27.5,25.9-59,49.5-69.2,51.1c-10.2,2.4-62.1,7.9-116.4,12.6c-105.4,9.4-118.7,11.8-173,22.8
		C1037.9-918.1,1030.1-920.5,1004.1-951.2z M1233.7-1061.2c3.9-13.4-20.4-22.8-31.4-11.8c-4.7,4.7-5.5,11.8-2.4,17.3
		C1207-1044.7,1229-1048.7,1233.7-1061.2z M1316.2-1052.6c2.4-3.1-4.7-23.6-16.5-45.6s-22-42.5-23.6-45.6s8.6,0,22,7.1
		c18.1,8.6,27.5,9.4,33.8,3.1c12.6-12.6-7.9-44.8-38.5-59.8c-16.5-7.9-26.7-18.1-26.7-27.5c0-37,39.3-22.8,62.1,22
		c20.4,40.1,54.2,72.3,76.3,72.3c29.1,0,23.6-25.2-11.8-57.4c-16.5-14.9-33.8-28.3-38.5-29.9c-11.8-4.7-14.9-32.2-3.9-36.2
		c5.5-2.4,18.9,6.3,29.9,18.1s19.7,17.3,19.7,13.4c0-4.7-8.6-17.3-19.7-29.1c-23.6-25.9-59-28.3-59-3.9v16.5l-28.3-17.3
		c-36.2-20.4-50.3-15.7-50.3,17.3v25.9l-16.5-25.2c-9.4-14.2-21.2-25.9-27.5-25.9c-12.6,0-14.2,9.4-3.9,20.4
		c20.4,21.2,96.7,171.4,88.8,174.5c-5.5,1.6-9.4,6.3-9.4,10.2C1274.6-1047.1,1308.4-1045.5,1316.2-1052.6z M1054.4-1109.2
		c3.1-12.6,7.1-14.9,15.7-9.4c17.3,11,47.2,9.4,47.2-1.6c0-5.5-10.2-29.1-22.8-51.1c-29.9-54.2-15.7-53.5,38.5,1.6
		c66.8,68.4,92,55,46.4-24.4c-22-39.3-22.8-55-0.8-33c7.1,7.1,9.4,7.1,9.4,0c0-10.2-25.2-25.2-42.5-25.2c-18.1,0-14.9,22.8,7.1,59
		c30.7,48.7,23.6,49.5-26.7,1.6c-25.9-25.2-52.7-44.8-59.8-44.8c-22,0-22,22,0,59c11,19.7,19.7,40.1,18.1,44.8
		c-3.9,11-51.9-29.9-66-57.4c-6.3-12.6-14.9-22.8-18.9-22.8c-13.4,0-8.6,23.6,12.6,59.8c18.9,33,17.3,45.6-3.1,25.2
		c-7.1-7.1-9.4-6.3-9.4,3.1c0,14.2,30.7,39.3,43.2,35.4C1046.6-1091.1,1052.1-1099.8,1054.4-1109.2z"/>
	<path d="M1377.6-1162.7c-24.4-31.4-19.7-40.9,7.1-14.9c13.4,12.6,23.6,25.2,23.6,29.1C1408.2-1135.9,1393.3-1143,1377.6-1162.7z"/>
	<path d="M1268.3-1170.5c-9.4-6.3-17.3-14.9-17.3-18.9c0-9.4,44,6.3,55.8,20.4C1319.4-1153.2,1291.9-1154,1268.3-1170.5z"/>
	<path d="M1882.3-1047.9c-48-64.5-85.7-117.9-83.3-117.9c2.4,0,9.4,6.3,14.9,14.2c6.3,7.9,10.2,9.4,11,3.9
		c0-16.5-64.5-76.3-116.4-108.5c-26.7-16.5-48-31.4-46.4-33c1.6-0.8,23.6,4.7,49.5,14.2c25.2,9.4,67.6,18.9,93.6,22
		c46.4,4.7,47.2,4.7,71.5,45.6c27.5,47.2,107.7,277.5,95.1,277.5C1971.1-929.9,1930.3-982.6,1882.3-1047.9z"/>
	<path d="M3181.9-952c-7.1-14.2-11.8-30.7-10.2-35.4c4.7-14.2,30.7,31.4,27.5,47.2C3196.8-929.2,3192.9-931.5,3181.9-952z"/>
	<path d="M3937.4-943.3c-2.4-3.9-0.8-13.4,3.1-22c5.5-13.4,6.3-13.4,6.3,6.3C3947.6-937.8,3943.7-932.3,3937.4-943.3z"/>
	<path d="M732.9-1007c-0.8-44,2.4-62.1,14.2-78.6c7.9-11.8,20.4-31.4,27.5-43.2c23.6-38.5,21.2-18.9-3.1,29.1
		c-14.2,26.7-23.6,59.8-24.4,78.6C745.5-958.2,733.7-945.7,732.9-1007z"/>
	<path d="M2442.1-961.4c2.4-3.9,8.6-7.9,12.6-7.9c4.7,0,5.5,3.9,3.1,7.9c-2.4,4.7-8.6,7.9-12.6,7.9
		C2440.5-953.5,2439.7-956.7,2442.1-961.4z"/>
	<path d="M3997.2-974c-2.4-6.3,1.6-18.1,8.6-25.2c11-11.8,14.2-11.8,20.4-2.4c7.9,12.6-3.1,40.1-16.5,40.1
		C4005.8-961.4,4000.3-966.9,3997.2-974z"/>
	<path d="M3096.2-990.5c-3.1-2.4-5.5-8.6-5.5-13.4s3.9-3.9,9.4,1.6c4.7,4.7,7.1,11,5.5,13.4C3103.3-986.5,3098.5-987.3,3096.2-990.5
		z"/>
	<path d="M3882.4-989.7c-3.1-3.1-5.5-13.4-5.5-22c0.8-14.9,0.8-15.7,8.6-2.4C3894.2-999.1,3891.8-980.3,3882.4-989.7z"/>
	<path d="M3740.1-1007.8c-3.1-5.5-3.9-11.8-1.6-14.2c7.1-7.1,14.9,3.1,11,14.2C3746.4-999.1,3744.8-999.1,3740.1-1007.8z"/>
	<path d="M3926.4-1021.9c-5.5-11.8-10.2-33-10.2-48c0-43.2,21.2-16.5,25.2,29.9C3943.7-996,3940.6-991.3,3926.4-1021.9z"/>
	<path d="M2438.1-1023.5c0-3.9,5.5-8.6,11.8-11.8c6.3-2.4,11.8-0.8,11.8,2.4c0,3.9-5.5,8.6-11.8,11.8
		C2443.6-1018.8,2438.1-1020.4,2438.1-1023.5z"/>
	<path d="M2481.4-1024.3c-12.6-19.7,25.9-74.7,41.7-59c3.1,3.1-0.8,8.6-8.6,12.6c-7.9,4.7-13.4,17.3-13.4,30.7
		C2501-1017.2,2490.8-1008.6,2481.4-1024.3z"/>
	<path d="M3712.6-1029c0-8.6,2.4-11,4.7-4.7c2.4,5.5,1.6,12.6-0.8,14.9C3714.1-1015.6,3711.8-1020.4,3712.6-1029z"/>
	<path d="M4002.7-1024.3c0-3.9,5.5-7.9,12.6-7.9c6.3,0,9.4,3.9,7.1,7.9c-2.4,4.7-7.9,7.9-12.6,7.9
		C4005.8-1016.4,4002.7-1019.6,4002.7-1024.3z"/>
	<path d="M2544.3-1032.1c3.1-4.7,8.6-6.3,12.6-3.9c11,7.1,8.6,11.8-5.5,11.8C2545.1-1024.3,2541.9-1028.2,2544.3-1032.1z"/>
	<path d="M3829.7-1049.4c0-7.1-8.6-23.6-19.7-36.2c-14.9-18.1-16.5-23.6-7.1-22c6.3,0.8,15.7,7.1,19.7,13.4c5.5,8.6,7.1,7.1,7.1-6.3
		c0-10.2-7.1-25.2-15.7-33.8c-13.4-13.4-14.2-18.1-6.3-31.4c12.6-20.4,25.9-19.7,40.9,0.8c11,15.7,33.8,14.2,24.4-1.6
		c-3.1-3.9-0.8-7.1,3.9-7.1c6.3,0,7.1,8.6,3.9,25.2l-5.5,25.2l21.2-14.2c25.9-17.3,33-11,19.7,16.5c-5.5,12.6-10.2,25.2-8.6,29.1
		c0.8,3.9-4.7,3.9-11.8,1.6c-10.2-3.9-21.2,3.1-40.1,23.6C3839.1-1047.1,3829.7-1041.6,3829.7-1049.4z"/>
	<path d="M2585.2-1075.4c-8.6-5.5-19.7-8.6-25.2-7.1c-5.5,2.4-11.8-1.6-14.2-7.9c-3.1-7.9-0.8-12.6,6.3-12.6
		c6.3,0,11.8-3.1,11.8-7.9c0-3.9,3.9-7.9,8.6-7.9c4.7,0,26.7-8.6,48-19.7c21.2-11,42.5-18.1,45.6-15.7c3.9,2.4,7.9,0,9.4-4.7
		c1.6-5.5,22-10.2,46.4-11c23.6-0.8,48-3.9,53.5-7.9c10.2-6.3,92.8-11.8,193.4-13.4c77.8-1.6,137.6,4.7,137.6,14.2
		c0,16.5-27.5,33.8-45.6,29.1c-16.5-3.9-21.2,1.6-18.1,25.9c0.8,4.7-20.4,8.6-53.5,8.6c-51.9,1.6-54.2,0.8-49.5-15.7
		c3.9-14.2,5.5-14.9,7.9-3.1c3.9,18.1,14.9,17.3,25.2-2.4c7.1-12.6,6.3-15.7-5.5-16.5c-14.2-1.6-67.6-0.8-70.8,0
		c-1.6,0.8,4.7,7.9,13.4,16.5c9.4,9.4,14.2,19.7,11,24.4c-2.4,4.7-9.4,2.4-17.3-6.3c-7.9-8.6-19.7-13.4-26.7-11.8
		c-16.5,3.1-18.1-7.1-4.7-20.4c7.1-7.1,4.7-9.4-12.6-9.4s-21.2,3.1-17.3,12.6c2.4,7.1,4.7,15.7,4.7,19.7c0,3.9,5.5,7.1,11.8,7.1
		s11.8,3.9,11.8,7.9c0,11.8-22.8,9.4-36.2-3.1c-6.3-6.3-11-16.5-11-22.8s-7.9-13.4-17.3-15.7c-17.3-4.7-45.6,6.3-45.6,17.3
		c0,3.9-7.1,5.5-15.7,3.1c-11-3.1-15.7,0-15.7,7.9c0,6.3-4.7,14.2-9.4,15.7c-7.9,3.1-7.1,6.3,1.6,12.6c10.2,7.1,9.4,8.6-3.1,8.6
		c-11.8,0-13.4-3.9-9.4-20.4c4.7-16.5,3.1-19.7-8.6-15.7c-7.9,2.4-23.6,6.3-35.4,9.4c-12.6,2.4-22,7.1-22,10.2s-10.2,4.7-23.6,2.4
		c-25.9-3.9-27.5-0.8-15.7,22.8C2612.7-1061.2,2605.6-1059.7,2585.2-1075.4z M3017.6-1139.1c-2.4-2.4-9.4-3.1-14.9-0.8
		c-6.3,2.4-3.9,4.7,4.7,4.7C3016-1134.4,3020.7-1136.7,3017.6-1139.1z"/>
	<path d="M3680.3-1071.5c0-3.9,3.9-7.9,8.6-7.9c3.9,0,5.5,3.9,3.1,7.9c-2.4,4.7-6.3,7.9-8.6,7.9
		C3681.9-1063.6,3680.3-1066.7,3680.3-1071.5z"/>
	<path d="M3107.2-1089.5c-10.2-12.6-3.9-21.2,16.5-21.2c7.9,0,14.2-4.7,12.6-10.2c-2.4-9.4,48-60.5,59.8-60.5
		c2.4,0,4.7,10.2,4.7,22.8c0,26.7-15.7,45.6-43.2,52.7c-10.2,2.4-20.4,9.4-22.8,15.7C3129.2-1076.2,3119-1076.2,3107.2-1089.5z"/>
	<path d="M2882.3-1102.9c-2.4-3.9-0.8-7.9,3.1-7.9c4.7,0,8.6,3.9,8.6,7.9c0,4.7-1.6,7.9-3.1,7.9
		C2888.6-1095,2884.7-1098.2,2882.3-1102.9z"/>
	<path d="M3075-1110c0-10.2,22.8-27.5,29.1-22c5.5,6.3-11.8,29.1-22,29.1C3078.1-1102.9,3075-1106,3075-1110z"/>
	<path d="M3931.9-1110.8c0-8.6,33-40.1,37.7-35.4c1.6,1.6-2.4,8.6-9.4,15.7c-7.1,7.1-12.6,16.5-12.6,20.4s-3.1,7.1-7.9,7.1
		C3935.8-1102.9,3931.9-1106,3931.9-1110.8z"/>
	<path d="M3505-1131.2c-3.1-3.1-5.5-13.4-5.5-22c0.8-14.9,0.8-15.7,8.6-2.4C3516.8-1140.6,3514.4-1121.8,3505-1131.2z"/>
	<path d="M3758.9-1151.6c0-17.3,9.4-45.6,14.9-45.6c2.4,0,10.2,3.9,16.5,7.9c10.2,7.1,10.2,9.4-1.6,15.7
		c-7.1,4.7-11.8,13.4-9.4,19.7c3.1,7.1,0,11.8-7.9,11.8C3764.4-1142.2,3758.9-1146.9,3758.9-1151.6z"/>
	<path d="M3122.1-1157.2c0-3.9,3.9-10.2,7.9-12.6c4.7-2.4,7.9-1.6,7.9,3.1c0,3.9-3.1,10.2-7.9,12.6
		C3126.1-1151.6,3122.1-1152.4,3122.1-1157.2z"/>
	<path d="M3621.4-1157.9c-2.4-3.9-0.8-7.9,3.1-7.9c4.7,0,8.6,3.9,8.6,7.9c0,4.7-1.6,7.9-3.1,7.9
		C3627.7-1150.1,3623.7-1153.2,3621.4-1157.9z"/>
	<path d="M3679.5-1151.6c-4.7-18.9-3.9-45.6,1.6-45.6c3.9,0,7.1,11,7.1,23.6c0,13.4-1.6,23.6-3.9,23.6
		C3681.9-1150.1,3680.3-1150.9,3679.5-1151.6z"/>
	<path d="M3740.9-1226.3c-8.6-8.6-6.3-24.4,4.7-28.3c7.9-3.1,10.2,1.6,7.1,14.9C3748.7-1219.3,3747.9-1218.5,3740.9-1226.3z"/>
	<path d="M3324.2-1234.2c-9.4-15.7-48.7-120.3-65.3-173.7c-25.9-84.1-22.8-97.5,4.7-19.7c12.6,35.4,34.6,95.1,49.5,132.1
		c15.7,37,24.4,66.8,21.2,66.8C3330.5-1228.7,3325.8-1231.1,3324.2-1234.2z"/>
	<path d="M3452.3-1240.5c0-6.3,1.6-11.8,3.1-11.8c1.6,0,4.7,5.5,7.9,11.8c2.4,6.3,0.8,11.8-3.1,11.8
		C3455.5-1228.7,3452.3-1234.2,3452.3-1240.5z"/>
	<path d="M3261.3-1277.4c-7.9-17.3-12.6-33-11-34.6s9.4,11,17.3,28.3c7.9,17.3,12.6,33,11,35.4
		C3276.2-1246.8,3268.4-1259.4,3261.3-1277.4z"/>
	<path d="M3519.9-1256.2c-7.1-20.4-5.5-25.2,3.9-9.4c4.7,7.9,7.1,16.5,4.7,18.1C3527-1245.2,3523.1-1249.1,3519.9-1256.2z"/>
	<path d="M3394.2-1269.6c-10.2-37.7,2.4-42.5,16.5-6.3c7.1,18.9,7.1,23.6-1.6,23.6C3403.6-1252.3,3397.3-1260.1,3394.2-1269.6z"/>
	<path d="M3342.3-1295.5c-25.9-65.3-73.1-250-69.2-268.9c1.6-7.9,11,19.7,21.2,60.5c9.4,40.9,28.3,106.1,40.9,144.7
		c12.6,37.7,22,73.1,20.4,78.6C3353.3-1275.9,3347.8-1282.2,3342.3-1295.5z"/>
	<path d="M1611.1-1289.2c5.5-2.4,12.6-1.6,14.9,0.8c3.1,2.4-1.6,4.7-10.2,3.9C1607.1-1284.5,1604.8-1286.9,1611.1-1289.2z"/>
	<path d="M3504.2-1312.8c-8.6-49.5-12.6-100.6-5.5-84.1c8.6,19.7,19.7,105.4,14.2,105.4C3510.5-1291.6,3506.6-1301,3504.2-1312.8z"
		/>
	<path d="M3462.6-1313.6c-2.4-9.4-7.1-17.3-10.2-17.3c-6.3,0-11.8-30.7-18.9-114c-3.9-37.7-3.1-42.5,3.1-23.6
		c14.2,41.7,39.3,163.5,35.4,168.2C3469.6-1297.9,3465.7-1304.2,3462.6-1313.6z"/>
	<path d="M3723.6-1316c-7.1-20.4-3.9-23.6,18.1-17.3c21.2,5.5,22,14.9,2.4,25.9C3731.4-1301,3727.5-1302.6,3723.6-1316z"/>
	<path d="M3725.1-1358.4c-6.3-14.2,8.6-24.4,19.7-13.4c8.6,8.6,2.4,25.2-9.4,25.2C3732.2-1346.6,3727.5-1352.1,3725.1-1358.4z"/>
	<path d="M3353.3-1399.3c-3.1-16.5-7.9-33-11-37.7c-3.9-3.9-8.6-29.1-11-55c-5.5-56.6-3.1-52.7,22.8,37.7
		c22,76.3,22.8,84.1,11.8,84.1C3361.9-1370.2,3356.4-1383.6,3353.3-1399.3z"/>
	<path d="M3217.3-1390.7c0-8.6,2.4-11,4.7-4.7c2.4,5.5,1.6,12.6-0.8,14.9C3218.8-1377.3,3216.5-1382,3217.3-1390.7z"/>
	<path d="M3391.8-1393.8c-9.4-22-22.8-139.9-14.9-132.9c7.9,7.1,29.9,124.2,25.9,139.2C3400.4-1376.5,3398.1-1378.1,3391.8-1393.8z"
		/>
	<path d="M3832.1-1456.7c-5.5-14.2-5.5-23.6-1.6-23.6s11-7.9,14.9-17.3c6.3-16.5,7.1-16.5,7.1-2.4c0,8.6-2.4,21.2-6.3,26.7
		c-4.7,7.1-4.7,17.3,0,25.9c3.9,7.9,4.7,14.2,1.6,14.2C3843.9-1433.1,3836.8-1443.3,3832.1-1456.7z"/>
	<path d="M3804.5-1513.3c-12.6-19.7-12.6-20.4,5.5-28.3c19.7-9.4,31.4-3.9,20.4,9.4c-3.9,4.7-7.9,15.7-9.4,23.6
		C3817.9-1494.4,3816.3-1494.4,3804.5-1513.3z"/>
	<path d="M3565.5-1533c-3.1-12.6-22.8-62.9-44-111.6c-21.2-50.3-37.7-99.1-36.2-110.1c1.6-15.7,7.1-6.3,21.2,34.6
		c10.2,30.7,21.2,59,24.4,62.9c9.4,13.4,37.7,93.6,42.5,120.3C3578.9-1506.2,3572.6-1503.1,3565.5-1533z"/>
	<path d="M3316.3-1561.3c-3.1-7.9-5.5-22-4.7-31.4c0-16.5,0.8-16.5,7.9,1.6c3.9,11,6.3,25.2,5.5,31.4
		C3322.6-1549.5,3321-1549.5,3316.3-1561.3z"/>
	<path d="M3765.2-1567.5c-14.9-9.4-5.5-12.6,25.2-7.1c26.7,3.9,26.7,4.7,6.3,8.6C3784.9-1563.6,3771.5-1564.4,3765.2-1567.5z"/>
	<path d="M3265.2-1598.2c0-11,1.6-14.9,3.9-9.4c1.6,4.7,1.6,14.2,0,19.7C3266.8-1583.3,3265.2-1587.2,3265.2-1598.2z"/>
	<path d="M1727.4-1647c-8.6-14.2-17.3-27.5-19.7-29.9c-2.4-2.4-14.9-25.2-28.3-51.1c-69.2-138.4-219.3-207.6-428.5-198.1
		c-202.1,9.4-335.7,81-397,212.3c-29.1,60.5-32.2,58.2-18.9-14.2c25.9-142.3,118.7-233.5,283-279.1
		c235.1-65.3,481.2,12.6,566.8,178.5c30.7,59.8,63.7,165.9,59.8,191.8C1742.4-1622.6,1740.8-1623.4,1727.4-1647z"/>
	<path d="M2012-1721.6c-22-50.3-33.8-117.1-22-124.2c12.6-7.9,8.6-37.7-7.9-62.9c-22-33-19.7-37.7,9.4-19.7
		c44,26.7,53.5-5.5,14.2-49.5c-26.7-31.4-29.1-38.5-9.4-31.4c12.6,3.9,12.6,3.9,0-9.4c-14.2-14.9-29.9-10.2-29.9,9.4
		c0,6.3,11,25.9,24.4,42.5c25.2,32.2,23.6,37-8.6,18.9c-11-6.3-22-11-25.2-11.8c-11.8,0-5.5,25.2,14.2,59.8
		c11,18.9,16.5,34.6,11.8,34.6c-5.5,0-11-5.5-13.4-11.8c-3.1-6.3-7.9-10.2-11.8-7.9c-11.8,7.9-41.7-107.7-42.5-162
		c0-62.9,22-117.1,73.9-179.3c40.1-47.2,62.1-59.8,135.2-70c58.2-8.6,99.1-23.6,117.9-42.5c35.4-33.8,192.6-43.2,239.8-13.4
		c15.7,9.4,25.2,19.7,21.2,22.8c-3.1,3.1-24.4,19.7-46.4,37c-22.8,17.3-52.7,45.6-66.8,62.1c-14.9,16.5-29.1,32.2-31.4,34.6
		c-27.5,24.4-96.7,154.9-120.3,225.6c-8.6,25.9-27.5,55-52.7,82.6c-92,97.5-113.2,128.9-136,197.3
		C2042.7-1666.6,2032.5-1675.3,2012-1721.6z M2054.5-1874.9c5.5-14.2-1.6-30.7-10.2-25.2c-9.4,5.5-9.4,34.6,0,34.6
		C2048.2-1865.5,2052.9-1870.2,2054.5-1874.9z M2159-1881.2c7.9-8.6,12.6-15.7,10.2-15.7s-10.2,7.1-18.1,15.7
		c-7.9,8.6-12.6,15.7-10.2,15.7S2151.2-1872.6,2159-1881.2z M2107.9-1943.3c0-6.3-11-23.6-25.2-37.7c-23.6-24.4-23.6-25.9-7.9-25.9
		c9.4,0,20.4-6.3,24.4-14.9c11.8-22-6.3-41.7-34.6-38.5c-20.4,2.4-23.6,0-23.6-17.3c0-27.5,22.8-29.1,52.7-3.9
		c27.5,23.6,66,24.4,80.2,2.4c15.7-25.2-3.9-41.7-47.2-41.7c-33,0-38.5-2.4-40.9-16.5c-3.1-20.4,17.3-29.9,39.3-18.1
		c12.6,7.1,14.9,6.3,12.6-2.4c-2.4-5.5-13.4-13.4-25.2-18.1c-18.9-6.3-24.4-4.7-37,11c-8.6,11-13.4,25.2-11,33
		c3.9,11-0.8,14.2-21.2,16.5c-28.3,2.4-30.7,11-18.9,57.4l6.3,23.6l-19.7-18.1c-14.2-13.4-20.4-15.7-22.8-7.9
		c-2.4,5.5,18.9,35.4,46.4,65.3c41.7,45.6,49.5,58.2,45.6,74.7c-4.7,18.9-4.7,18.9,11,4.7
		C2100.9-1924.5,2107.9-1936.3,2107.9-1943.3z"/>
	<path d="M2045-2025.9c0-12.6,29.1-25.2,37.7-16.5c5.5,5.5-19.7,27.5-31.4,27.5C2048.2-2014.9,2045-2019.6,2045-2025.9z"/>
	<path d="M2118.9-2097.4c-14.2-11-13.4-11.8,11.8-10.2c14.9,1.6,28.3,7.1,30.7,12.6C2165.3-2081.7,2137.8-2083.3,2118.9-2097.4z"/>
	<path d="M3947.6-1731.9c8.6-15.7,23.6-22,23.6-9.4c0,8.6-17.3,25.2-25.2,25.2C3942.1-1716.1,3942.9-1723.2,3947.6-1731.9z"/>
	<path d="M1630.7-1749.9c-18.9-13.4-32.2-25.2-30.7-26.7c4.7-5.5,48,18.9,59.8,33C1677.9-1722.4,1664.5-1724.8,1630.7-1749.9z"/>
	<path d="M4120.6-1731.1c0-10.2,22-25.9,25.9-18.1c2.4,3.1-2.4,10.2-11,15.7C4127.7-1727.9,4120.6-1727.1,4120.6-1731.1z"/>
	<path d="M4325-1743.7c5.5-6.3,12.6-9.4,16.5-7.1c12.6,7.1,7.9,15.7-9.4,16.5C4318.7-1732.6,4317.9-1735,4325-1743.7z"/>
	<path d="M4490.1-1746c0-3.9,5.5-11.8,11.8-17.3s11.8-6.3,11.8-1.6c0,3.9-5.5,11.8-11.8,17.3S4490.1-1741.3,4490.1-1746z"/>
	<path d="M4710.2-1759.4c-8.6-10.2-7.9-11,3.1-7.1c7.1,2.4,12.6,7.9,12.6,11.8C4726-1744.4,4721.2-1746,4710.2-1759.4z"/>
	<path d="M3986.9-1874.2c0-3.9,3.9-5.5,7.9-3.1c4.7,2.4,7.9,6.3,7.9,8.6c0,1.6-3.1,3.1-7.9,3.1
		C3990.9-1865.5,3986.9-1869.4,3986.9-1874.2z"/>
	<path d="M3947.6-1881.2c0-3.9,3.9-7.9,7.9-7.9c4.7,0,7.9,3.9,7.9,7.9c0,4.7-3.1,7.9-7.9,7.9
		C3951.6-1873.4,3947.6-1876.5,3947.6-1881.2z"/>
	<path d="M4152-1963.8c0-6.3,13.4-37.7,29.9-68.4c27.5-54.2,29.1-61.3,29.1-132.1c0-66-2.4-80.2-22-119.5
		c-51.1-104.6-187.1-181.6-406.5-230.4c-45.6-10.2-109.3-25.9-141.5-34.6c-77.8-21.2-162-32.2-243.7-31.4c-37,0-118.7,0-181.6-0.8
		c-106.9-0.8-217.8,9.4-376.6,33.8c-37,5.5-61.3,12.6-55,14.9c6.3,2.4-2.4,3.1-19.7,0.8c-38.5-4.7-220.9,31.4-270.5,53.5
		c-47.2,20.4-49.5,13.4-3.1-13.4c121.1-68.4,158.8-92.8,190.3-121.1c19.7-17.3,37-31.4,40.1-31.4s40.1-5.5,83.3-11.8
		c162.7-24.4,303.5-37,467-41.7l169-5.5l-74.7-18.9c-40.9-11-80.2-19.7-86.5-20.4c-6.3-0.8-17.3-3.9-23.6-6.3
		c-6.3-2.4-29.1-7.9-51.1-12.6c-21.2-3.9-95.9-18.1-165.1-31.4c-201.3-38.5-182.4-37.7-198.1-9.4c-7.9,13.4-16.5,24.4-20.4,24.4
		c-3.1,0,3.9-14.9,14.9-33c26.7-43.2,23.6-40.9,40.1-34.6c7.9,3.1,15.7,6.3,18.1,6.3s12.6,3.9,23.6,7.9
		c10.2,3.9,95.9,21.2,189.5,37.7c215.4,39.3,286.2,57.4,353,92c11,5.5,26.7,10.2,35.4,9.4c14.2,0,13.4-0.8-3.1-7.9
		c-32.2-12.6-14.9-14.2,33.8-3.1c25.2,6.3,90.4,16.5,145.4,22.8c54.2,7.1,189.5,22.8,299.5,37c110.1,13.4,217,26.7,236.6,30.7
		c19.7,3.9,44.8,5.5,55,3.1c11.8-3.1,15.7-2.4,9.4,2.4c-7.1,4.7,1.6,10.2,25.2,16.5c100.6,26.7,200.5,98.3,238.2,169.8
		c18.9,35.4,21.2,48.7,21.2,110.9c0,65.3-2.4,74.7-27.5,121.9c-51.1,95.9-153.3,176.9-280.7,220.9
		C4194.5-1948.8,4152-1947.3,4152-1963.8z"/>
	<path d="M5658.4-2039.3c-13.4-29.9-191.8-161.2-293.3-215.4c-20.4-11-66-37.7-100.6-59.8c-84.9-52.7-218.6-120.3-271.2-136
		c-23.6-7.9-51.1-17.3-60.5-22s-25.2-6.3-34.6-3.9c-9.4,2.4-48-3.9-84.9-14.9c-37-11.8-83.3-25.2-103-30.7s-55-16.5-78.6-23.6
		c-23.6-7.9-67.6-20.4-98.3-28.3l-55-14.2l47.2,3.9c59,5.5,235.9,42.5,331,69.2c79.4,22,184,61.3,266.5,99.1
		c45.6,20.4,233.5,124.2,290.1,159.6c21.2,13.4,132.9,90.4,143.1,99.1c4.7,3.9,18.1,5.5,29.1,4.7c11.8-1.6,19.7,0,17.3,3.9
		c-2.4,3.1,12.6,22,32.2,41.7c29.1,29.1,35.4,40.1,33,58.2C5665.5-2032.2,5663.1-2029.8,5658.4-2039.3z"/>
	<path d="M3751.1-2127.3c-85.7-83.3-183.2-160.4-264.9-209.1c-56.6-33.8-70-44.8-43.2-34.6c59.8,22.8,243.7,158.8,312.1,231.1
		C3857.2-2031.4,3854.9-2025.9,3751.1-2127.3z"/>
	<path d="M3397.3-2388.3c-11-6.3-15.7-11-11-11.8c3.9,0,14.9,5.5,23.6,11.8C3428.7-2374.2,3422.5-2373.4,3397.3-2388.3z"/>
	<path d="M1923.2-2652.5c11-136,94.3-250,232.7-320c97.5-49.5,155.7-59,321.6-54.2c190.3,5.5,366.4,38.5,837.3,154.9
		c322.3,80.2,402.5,95.1,707.6,133.7c138.4,17.3,309.8,41.7,381.3,54.2c71.5,13.4,144.7,25.9,163.5,28.3c50.3,7.9,39.3,18.1-11.8,11
		c-86.5-11.8-305.8-30.7-438.7-38.5c-73.1-4.7-165.1-11-204.4-15.7c-243.7-26.7-305-35.4-428.5-59c-75.5-14.9-183.2-37.7-239.8-51.1
		c-139.9-33.8-420.6-89.6-534.6-106.9c-131.3-19.7-364.8-20.4-436.3-0.8c-158.8,42.5-286.2,154.9-329.4,290.1
		C1925.5-2571.5,1916.9-2582.5,1923.2-2652.5z"/>
	<path d="M2768.3-2712.2c10.2-14.2,19.7-25.9,21.2-25.9c6.3,0-13.4,29.9-25.9,40.1C2755-2691,2756.5-2696.5,2768.3-2712.2z"/>
</g>
<g transform="translate(0.000000,612.000000) scale(0.100000,-0.100000)">
	<path d="M5357.4,5313c-38.5-30.8-106.6-90.1-150.5-133c-72.5-70.3-78-79.1-60.4-91.2c11-7.7,35.2-27.5,52.7-44
		c18.7-15.4,45.1-37.4,60.4-47.3c15.4-9.9,58.2-41.8,96.7-71.4l68.1-53.8l45.1,45.1c25.3,24.2,74.7,68.1,111,96.7
		c37.4,29.7,82.4,65.9,100,81.3l34.1,29.7l-31.9,41.8c-51.6,69.2-151.6,170.3-183.5,186.8C5451.9,5377.8,5431,5372.3,5357.4,5313z
		 M5457.4,5314.1c0-5.5,6.6-11,14.3-11c8.8,0,26.4-12.1,39.6-26.4c18.7-19.8,20.9-27.5,9.9-31.9c-7.7-3.3-3.3-6.6,9.9-6.6
		c27.5-1.1,90.1-75.8,82.4-100c-3.3-9.9,1.1-8.8,11,4.4c11,14.3,18.7,16.5,24.2,8.8c3.3-6.6-2.2-17.6-14.3-24.2
		c-22-11-41.8,1.1-29.7,19.8c2.2,4.4-7.7,13.2-22,20.9c-23.1,11-26.4,9.9-26.4-8.8c0-18.7-3.3-18.7-22-7.7
		c-36.3,23.1-40.7-2.2-5.5-31.9c18.7-15.4,25.3-25.3,15.4-22c-129.7,42.9-203.3,62.6-227.5,62.6c-40.7,0-79.1,12.1-79.1,23.1
		c0,17.6,63.7,67,134.1,103.3C5449.7,5327.3,5457.4,5329.5,5457.4,5314.1z M5232.1,5149.3c4.4-6.6,11-8.8,16.5-5.5s13.2,0,17.6-6.6
		c3.3-6.6,1.1-16.5-6.6-20.9c-17.6-11-69.2,19.8-59.3,34.1C5208,5163.6,5223.4,5162.5,5232.1,5149.3z M5316.8,5075.6
		c-6.6-2.2-9.9-11-6.6-16.5c4.4-7.7,2.2-8.8-5.5-4.4c-14.3,9.9-5.5,28.6,13.2,27.5C5327.8,5082.2,5326.7,5080,5316.8,5075.6z
		 M5347.5,5057c0-2.2-7.7-9.9-16.5-17.6c-14.3-12.1-15.4-11-9.9,4.4C5326.7,5059.2,5347.5,5069,5347.5,5057z M5364,5016.3
		c12.1-17.6,1.1-20.9-14.3-3.3c-7.7,8.8-8.8,15.4-3.3,15.4S5360.7,5022.9,5364,5016.3z M5399.2,4971.2c-3.3-8.8-6.6-5.5-6.6,6.6
		c-1.1,12.1,2.2,18.7,5.5,14.3C5401.4,4988.8,5402.5,4978.9,5399.2,4971.2z"/>
	<path d="M5319,5242.7c-3.3-8.8-4.4-22-1.1-29.7c4.4-8.8,6.6-6.6,6.6,5.5c1.1,9.9,6.6,18.7,12.1,18.7c6.6,0,11,5.5,11,11
		C5347.5,5264.7,5325.6,5261.4,5319,5242.7z"/>
	<path d="M5354.1,5220.7c-19.8-15.4-19.8-16.5,11-27.5c17.6-6.6,45.1-16.5,60.4-23.1c22-8.8,39.6-5.5,87.9,16.5
		c47.3,23.1,53.8,28.6,30.8,28.6c-16.5,0-41.8-11-58.2-23.1c-33-25.3-51.6-20.9-28.6,6.6c13.2,15.4,11,16.5-12.1,11
		c-18.7-4.4-33-1.1-41.8,9.9C5386,5240.5,5380.5,5240.5,5354.1,5220.7z"/>
	<path d="M4971.7,5024c-17.6-13.2-17.6-15.4,5.5-37.4c19.8-18.7,26.4-19.8,37.4-7.7c11,12.1,9.9,19.8-5.5,37.4
		C4993.7,5035,4987.1,5036.1,4971.7,5024z"/>
	<path d="M4526.7,4847.1c-42.9-18.7-45.1-37.4-8.8-71.4c15.4-14.3,27.5-20.9,27.5-14.3s29.7,19.8,65.9,29.7s65.9,20.9,65.9,22
		c0,2.2-13.2,13.2-29.7,23.1C4608,4862.5,4569.5,4865.8,4526.7,4847.1z M4583.8,4808.6c-29.7-13.2-47.3-13.2-27.5,0
		c8.8,5.5,24.2,9.9,33,9.9C4600.3,4818.5,4598.1,4815.2,4583.8,4808.6z"/>
	<path d="M5268.4,4838.3c8.8-9.9,12.1-22,8.8-27.5c-3.3-5.5,5.5-20.9,19.8-34.1s34.1-44,45.1-67c17.6-39.6,17.6-44,1.1-61.5
		c-17.6-16.5-22-15.4-75.8,22c-31.9,22-73.6,52.7-92.3,69.2c-46.2,36.3-45.1,28.6,2.2-30.8c40.7-50.5,49.5-86.8,22-86.8
		c-8.8,0-16.5-4.4-16.5-11c0-20.9-18.7-11-81.3,44c-35.2,30.8-68.1,52.7-73.6,49.5c-5.5-4.4,0-26.4,12.1-49.5
		c28.6-56,27.5-63.7-7.7-78c-28.6-11-34.1-7.7-76.9,39.6l-47.3,51.6v-60.4c0-40.7-5.5-64.8-16.5-73.6c-24.2-19.8-37.4-3.3-44,54.9
		c-3.3,27.5-11,53.8-16.5,59.3c-6.6,6.6-37.4,2.2-79.1-9.9c-72.5-20.9-104.4-38.5-70.3-38.5c9.9,0,15.4-4.4,12.1-11
		c-8.8-14.3,9.9-48.4,58.2-102.2c37.4-41.8,38.5-44,13.2-36.3c-15.4,4.4-34.1,8.8-40.7,8.8c-7.7,1.1-14.3,5.5-14.3,11
		s-4.4,7.7-9.9,4.4c-14.3-8.8-25.3,25.3-17.6,52.7c5.5,20.9,5.5,20.9-5.5,3.3c-7.7-11-9.9-27.5-6.6-36.3c4.4-12.1,2.2-13.2-13.2-5.5
		c-12.1,6.6-26.4,6.6-35.2,1.1c-9.9-5.5-20.9-5.5-29.7,2.2c-9.9,7.7-14.3,7.7-14.3-1.1c0-11,14.3-16.5,36.3-13.2
		c4.4,0,7.7-3.3,7.7-9.9c0-14.3-14.3-14.3-48.4,1.1c-14.3,6.6-25.3,18.7-24.2,25.3c2.2,6.6,1.1,8.8-1.1,4.4
		c-3.3-5.5-13.2-8.8-22-8.8c-13.2,0-14.3,3.3-3.3,15.4c11,14.3,7.7,15.4-15.4,11c-23.1-3.3-44,12.1-126.4,90.1
		c-53.8,51.6-109.9,102.2-124.2,112.1s28.6-34.1,94.5-96.7c157.1-152.7,203.3-175.8,418.7-214.3c122-20.9,135.2-26.4,216.5-89
		l64.8-50.5l-62.6-48.4c-34.1-26.4-69.2-48.4-76.9-48.4c-8.8,0-15.4-5.5-15.4-12.1s-9.9-9.9-22-6.6s-22,1.1-22-5.5
		s12.1-8.8,26.4-6.6c25.3,5.5,27.5,1.1,34.1-48.4c8.8-62.6,29.7-71.4,25.3-9.9c-2.2,23.1-7.7,40.7-12.1,37.4
		c-5.5-3.3-7.7,5.5-5.5,19.8c2.2,17.6,9.9,26.4,22,25.3c11-1.1,16.5,3.3,12.1,9.9c-4.4,7.7,0,8.8,12.1,4.4c11-4.4,20.9-7.7,24.2-7.7
		c2.2,0,0-8.8-3.3-18.7c-6.6-16.5-5.5-17.6,9.9-3.3c14.3,14.3,15.4,17.6,2.2,25.3c-8.8,4.4-15.4,14.3-15.4,20.9s7.7,5.5,18.7-3.3
		c16.5-13.2,17.6-13.2,12.1,2.2c-4.4,9.9-2.2,23.1,4.4,29.7c16.5,16.5,41.8,3.3,33-17.6c-5.5-15.4-4.4-16.5,11-2.2
		c15.4,15.4,15.4,17.6-6.6,29.7c-12.1,7.7-18.7,13.2-14.3,14.3c5.5,0,19.8-5.5,33-13.2s35.2-14.3,47.3-16.5
		c20.9-3.3,23.1,0,18.7,40.7c-3.3,28.6-1.1,44,7.7,44c6.6,0,8.8-4.4,5.5-11c-3.3-5.5,0-7.7,9.9-4.4c9.9,3.3,15.4,17.6,14.3,35.2
		c-1.1,20.9,5.5,33,23.1,41.8c14.3,6.6,25.3,16.5,25.3,22c1.1,17.6,9.9,19.8,9.9,2.2c0-9.9,7.7-19.8,16.5-24.2
		c18.7-6.6,23.1,9.9,5.5,20.9c-5.5,3.3-11,13.2-9.9,19.8c0,9.9,2.2,9.9,6.6,0c7.7-20.9,34.1-17.6,39.6,5.5
		c3.3,13.2,5.5,12.1,6.6-6.6c1.1-15.4,5.5-23.1,13.2-17.6c6.6,3.3,3.3-5.5-6.6-22c-11-15.4-23.1-28.6-27.5-28.6
		s-16.5-18.7-26.4-41.8c-14.3-31.9-18.7-64.8-15.4-126.4c3.3-79.1,4.4-84.6,28.6-84.6h24.2l-22,44c-53.8,106.6-2.2,213.2,133,274.7
		c69.2,30.8,80.2,28.6,59.3-11c-19.8-38.5-22-103.3-2.2-118.7c18.7-15.4,214.3-59.3,248.4-54.9c15.4,1.1,34.1-1.1,39.6-4.4
		c6.6-3.3,38.5-9.9,71.4-13.2l60.4-5.5l-48.4,15.4c-60.4,19.8-122,81.3-122,122c0,22,15.4,45.1,54.9,83.5
		c30.8,28.6,54.9,58.2,54.9,64.8s7.7,9.9,16.5,5.5c9.9-3.3,16.5,0,16.5,11c0,8.8,4.4,14.3,9.9,11c5.5-4.4,12.1-1.1,14.3,6.6
		c7.7,20.9,53.8,22,71.4,1.1c7.7-11,28.6-49.5,46.2-85.7c61.5-131.9,131.9-170.3,204.4-109.9c18.7,14.3,27.5,26.4,19.8,27.5
		c-6.6,0-16.5-4.4-19.8-11c-11-17.6-69.2-13.2-100,6.6c-34.1,23.1-73.6,90.1-98.9,169.2c-36.3,112.1-156,271.4-214.3,283.5
		c-8.8,2.2-19.8,9.9-26.4,17.6c-17.6,22-100,39.6-116.5,24.2c-9.9-8.8-11-8.8-4.4,2.2c6.6,13.2-6.6,14.3-72.5,7.7
		c-45.1-4.4-83.5-8.8-84.6-11c-2.2-2.2,16.5-34.1,40.7-70.3c48.4-70.3,54.9-96.7,28.6-106.6c-20.9-8.8-61.5,17.6-137.4,90.1
		C5355.2,4804.2,5236.5,4876.7,5268.4,4838.3z M5289.3,4564.7c-3.3-8.8-6.6-5.5-6.6,6.6c-1.1,12.1,2.2,18.7,5.5,14.3
		C5291.5,4582.2,5292.6,4572.3,5289.3,4564.7z M5295.9,4488.8c-8.8-34.1-22-24.2-16.5,13.2c3.3,20.9,7.7,28.6,13.2,20.9
		C5297,4515.2,5298.1,4499.8,5295.9,4488.8z M4654.1,4465.8c12.1-16.5,12.1-19.8-1.1-19.8c-7.7,0-15.4,11-16.5,23.1
		c-1.1,13.2-1.1,22,0,19.8C4638.7,4486.6,4646.4,4475.6,4654.1,4465.8z M4737.6,4443.8c6.6-3.3,25.3-8.8,42.9-13.2
		c16.5-4.4,28.6-9.9,26.4-12.1c-7.7-8.8-129.7,18.7-124.2,27.5S4721.2,4453.7,4737.6,4443.8z M5280.5,4427.3
		c0-12.1-3.3-14.3-6.6-5.5c-2.2,6.6-11,9.9-16.5,6.6c-7.7-4.4-8.8-2.2-4.4,4.4C5265.1,4452.6,5281.6,4448.2,5280.5,4427.3z
		 M5127.8,4269c0-12.1-4.4-19.8-11-15.4c-5.5,3.3-7.7,13.2-3.3,22C5121.2,4298.7,5127.8,4296.5,5127.8,4269z M5719,4230.6
		c-4.4-3.3-13.2,5.5-19.8,19.8c-13.2,24.2-13.2,24.2,6.6,6.6C5716.8,4246,5722.3,4235,5719,4230.6z"/>
	<path d="M3593.7,4693.2c-4.4-9.9-20.9-16.5-42.9-16.5c-30.8,0-45.1-11-97.8-72.5c-62.6-73.6-73.6-104.4-49.5-149.5
		c49.5-92.3,228.6-280.2,340.7-358.2c26.4-17.6,58.2-44,70.3-57.1c22-24.2,94.5-65.9,114.3-65.9c12.1,0,90.1-50.5,100-64.8
		c7.7-12.1,98.9-71.4,141.8-94.5c28.6-14.3,42.9-16.5,62.6-6.6c22,9.9,33,5.5,82.4-37.4c73.6-62.6,165.9-101.1,206.6-85.7
		c25.3,8.8,37.4,5.5,83.5-26.4c68.1-45.1,156-74.7,176.9-57.1c11,8.8,23.1,5.5,48.4-12.1c48.4-34.1,123.1-54.9,147.3-41.8
		c13.2,7.7,28.6,4.4,53.8-11c54.9-31.9,254.9-87.9,357.1-101.1c50.5-5.5,141.8-25.3,203.3-42.9c138.5-39.6,225.3-56,300-56
		c79.1,0,86.8,13.2,54.9,93.4c-15.4,35.2-24.2,70.3-20.9,78c3.3,8.8,29.7,31.9,59.3,53.8c65.9,47.3,84.6,81.3,65.9,122
		c-6.6,16.5-9.9,37.4-6.6,47.3c3.3,13.2-6.6,23.1-38.5,37.4c-24.2,9.9-49.5,18.7-54.9,18.7c-6.6,0-11,6.6-11,15.4
		c0,19.8-29.7,31.9-37.4,14.3c-3.3-9.9-8.8-8.8-16.5,3.3c-17.6,24.2-14.3,34.1,7.7,31.9c33-3.3,46.2,1.1,46.2,13.2
		c0,6.6-19.8,9.9-49.5,8.8c-78-5.5-68.1,7.7,13.2,15.4c103.3,9.9,113.2,23.1,73.6,97.8c-17.6,31.9-38.5,62.6-45.1,67
		c-7.7,4.4-14.3,18.7-14.3,31.9c0,19.8-4.4,20.9-40.7,14.3c-70.3-13.2-136.3-16.5-365.9-20.9c-124.2-2.2-246.2-9.9-269.2-15.4
		c-45.1-12.1-208.8-37.4-258.2-39.6c-67-3.3-213.2,42.9-405.5,129.7c-281.3,127.5-349.5,146.2-464.8,127.5
		c-29.7-4.4-52.7-5.5-52.7-3.3c0,1.1,15.4,9.9,35.2,17.6l35.2,14.3l-40.7,18.7c-22,11-40.7,24.2-40.7,29.7c0,6.6-6.6,11-14.3,11
		s-25.3,9.9-37.4,20.9c-13.2,12.1-26.4,18.7-30.8,14.3c-4.4-4.4,0,7.7,9.9,27.5c18.7,38.5,24.2,62.6,6.6,36.3
		c-8.8-13.2-11-13.2-11-1.1c0,11-3.3,12.1-15.4,2.2c-16.5-14.3-42.9,7.7-87.9,69.2c-11,15.4-24.2,28.6-27.5,28.6
		c-4.4,0-37.4,27.5-72.5,60.4C3691.5,4699.8,3608,4731.7,3593.7,4693.2z M3756.3,4275.6c58.2-39.6,112.1-79.1,118.7-87.9
		c7.7-8.8,19.8-16.5,27.5-16.5s68.1-25.3,133-56c338.5-157.1,723.1-258.2,1004.4-263.7c160.4-3.3,287.9-16.5,296.7-33
		c5.5-8.8-8.8-22-41.8-39.6c-64.8-35.2-209.9-136.3-237.4-167c-12.1-13.2-31.9-23.1-44-23.1c-40.7,0-105.5,22-105.5,36.3
		c-1.1,35.2-17.6,42.9-52.7,25.3c-29.7-15.4-38.5-15.4-92.3,0c-136.3,38.5-205.5,61.5-282.4,91.2c-67,26.4-83.5,37.4-95.6,65.9
		c-14.3,34.1-16.5,35.2-63.7,28.6c-46.2-7.7-59.3-3.3-168.1,54.9c-175.8,93.4-278,164.8-434.1,301.1
		c-136.3,118.7-162.6,153.8-147.3,194.5c5.5,15.4,12.1,14.3,42.9-9.9C3633.2,4360.3,3697,4315.2,3756.3,4275.6z M4369.5,4226.2
		c8.8-5.5,12.1-11,5.5-11c-5.5,0-18.7,5.5-27.5,11s-11,11-5.5,11C4348.6,4237.2,4360.7,4231.7,4369.5,4226.2z M4369.5,4182.2
		c0-5.5-2.2-11-4.4-11c-3.3,0-8.8,5.5-12.1,11c-3.3,6.6-1.1,11,4.4,11C4364,4193.2,4369.5,4188.8,4369.5,4182.2z M4511.3,4113
		c13.2-16.5,13.2-18.7-3.3-12.1c-9.9,3.3-17.6,14.3-17.6,24.2c0,8.8,1.1,14.3,3.3,12.1C4494.8,4135,4503.6,4124,4511.3,4113z
		 M5864,4078.9c0-3.3-4.4-8.8-11-12.1c-5.5-3.3-11-1.1-11,4.4c0,6.6,5.5,12.1,11,12.1C5859.6,4083.3,5864,4081.1,5864,4078.9z
		 M5847.5,4039.4c4.4-6.6-6.6-11-24.2-9.9c-27.5,0-28.6,1.1-8.8,9.9c12.1,5.5,23.1,9.9,24.2,9.9
		C5839.8,4050.4,5844.2,4046,5847.5,4039.4z M5721.2,4021.8c0-2.2-9.9-4.4-23.1-4.4c-12.1,0-19.8,4.4-15.4,11
		C5688.2,4037.2,5721.2,4031.7,5721.2,4021.8z M5765.1,4035c0-12.1-20.9-16.5-27.5-6.6c-3.3,5.5,1.1,11,9.9,11
		C5757.4,4039.4,5765.1,4037.2,5765.1,4035z M4917.9,3978.9c5.5,3.3,13.2,1.1,17.6-5.5c7.7-12.1-5.5-14.3-31.9-4.4
		c-9.9,3.3-17.6,17.6-16.5,30.8c0,22,1.1,22,11-2.2C4903.6,3983.3,4912.4,3974.5,4917.9,3978.9z M4809.1,3983.3
		c0-19.8-22-19.8-31.9,0c-9.9,17.6-8.8,19.8,9.9,15.4C4799.2,3995.4,4809.1,3988.8,4809.1,3983.3z M5182.7,3998.7
		c0-1.1-9.9-7.7-20.9-13.2c-15.4-8.8-22-7.7-26.4,3.3s2.2,14.3,20.9,13.2C5170.6,4002,5182.7,3999.8,5182.7,3998.7z M5843.1,3991
		c19.8,12.1,53.8-7.7,54.9-31.9l1.1-24.2l6.6,24.2c5.5,16.5,12.1,22,22,15.4c11-6.6,11-15.4-2.2-46.2c-9.9-20.9-16.5-30.8-17.6-22
		c0,7.7-6.6,12.1-16.5,8.8c-8.8-4.4-18.7-2.2-23.1,4.4c-3.3,6.6-13.2,8.8-22,5.5s-15.4-1.1-15.4,5.5s-4.4,7.7-11,4.4
		c-5.5-3.3-11-1.1-11,5.5s-4.4,8.8-11,5.5c-16.5-9.9-13.2,2.2,7.7,35.2c9.9,15.4,20.9,23.1,23.1,15.4
		C5831,3989.9,5837.6,3986.6,5843.1,3991z M5209.1,3974.5c3.3-5.5-1.1-12.1-9.9-15.4c-9.9-4.4-13.2-1.1-8.8,9.9
		C5197,3986.6,5201.4,3987.7,5209.1,3974.5z M5594.8,3896.5l22-27.5l-24.2,20.9c-14.3,12.1-25.3,26.4-25.3,31.9
		c0,6.6,1.1,8.8,3.3,6.6C5571.7,3926.2,5582.7,3911.9,5594.8,3896.5z M5740.9,3866.9c-17.6-2.2-44-2.2-60.4,0
		c-17.6,2.2-3.3,4.4,29.7,4.4C5743.1,3871.2,5757.4,3869,5740.9,3866.9z M5686,3800.9c-17.6-2.2-44-2.2-60.4,0
		c-17.6,2.2-3.3,4.4,29.7,4.4C5688.2,3805.3,5702.5,3803.1,5686,3800.9z M5886,3773.4c95.6-26.4,135.2-52.7,82.4-52.7
		c-23.1,0-28.6,3.3-17.6,9.9c9.9,6.6-19.8,17.6-93.4,34.1c-136.3,29.7-138.5,30.8-92.3,31.9C5786,3797.6,5840.9,3786.6,5886,3773.4z
		 M5572.8,3474.5c186.8-58.2,202.2-63.7,148.4-54.9c-51.6,8.8-351.6,103.3-351.6,111C5369.5,3537.2,5366.2,3538.3,5572.8,3474.5z"/>
	<path d="M4491.5,4660.3c15.4-17.6,41.8-47.3,57.1-65.9c16.5-17.6,29.7-36.3,29.7-40.7s11-14.3,24.2-20.9
		c28.6-15.4-44,74.7-103.3,127.5l-36.3,33L4491.5,4660.3z"/>
	<path d="M3856.3,4605.3c0-25.3,1.1-26.4,14.3-8.8c11,14.3,14.3,15.4,15.4,4.4c0-8.8,3.3-12.1,6.6-8.8c7.7,7.7-15.4,40.7-28.6,40.7
		C3859.6,4632.8,3856.3,4620.7,3856.3,4605.3z"/>
	<path d="M3962.9,4544.9c0-5.5,5.5-11,12.1-11c5.5,0,7.7,5.5,4.4,11c-3.3,6.6-8.8,11-12.1,11
		C3965.1,4555.9,3962.9,4551.5,3962.9,4544.9z"/>
	<path d="M4006.9,4524c0-5.5,7.7-13.2,17.6-16.5c15.4-5.5,16.5-4.4,4.4,9.9C4013.5,4536.1,4006.9,4538.3,4006.9,4524z"/>
	<path d="M6050.8,4443.8c0-19.8,61.5-82.4,89-91.2c35.2-11,104.4,15.4,120.9,45.1c7.7,14.3,11,28.6,8.8,30.8
		c-2.2,3.3-34.1-2.2-70.3-11c-94.5-22-114.3-19.8-126.4,12.1C6061.8,4459.2,6050.8,4465.8,6050.8,4443.8z"/>
	<path d="M5195.9,4336.1c0-15.4,2.2-20.9,5.5-13.2c2.2,6.6,2.2,19.8,0,27.5C5198.1,4357,5195.9,4351.5,5195.9,4336.1z"/>
	<path d="M5219,4337.2c1.1-16.5,4.4-18.7,15.4-9.9c7.7,5.5,11,15.4,7.7,20.9C5231,4365.8,5216.8,4358.1,5219,4337.2z"/>
	<path d="M4395.9,4333.9c-4.4-7.7-4.4-11,1.1-6.6c4.4,4.4,16.5,2.2,26.4-5.5c15.4-12.1,15.4-11,2.2,6.6
		C4408,4350.4,4405.8,4351.5,4395.9,4333.9z"/>
	<path d="M6281.6,4289.9c-12.1-26.4-22-57.1-22-69.2c0-20.9,0-20.9,16.5,1.1c15.4,23.1,40.7,114.3,30.8,114.3
		C6304.7,4336.1,6292.6,4315.2,6281.6,4289.9z"/>
	<path d="M4715.7,4160.3c3.3-5.5,8.8-11,12.1-11c2.2,0,4.4,5.5,4.4,11c0,6.6-5.5,11-12.1,11
		C4714.6,4171.2,4712.4,4166.9,4715.7,4160.3z"/>
	<path d="M6138.7,4149.3c-8.8-5.5-29.7-11-46.2-11c-18.7,0-30.8-5.5-30.8-15.4c0-11,14.3-14.3,52.7-13.2
		c57.1,1.1,85.7,17.6,64.8,38.5C6165.1,4162.5,6159.6,4163.6,6138.7,4149.3z"/>
	<path d="M4781.6,4138.3c3.3-5.5,8.8-11,12.1-11c2.2,0,4.4,5.5,4.4,11c0,6.6-5.5,11-12.1,11
		C4780.5,4149.3,4778.3,4144.9,4781.6,4138.3z"/>
	<path d="M4850.8,4119.6c6.6-2.2,19.8-2.2,27.5,0c6.6,3.3,1.1,5.5-14.3,5.5S4843.1,4122.9,4850.8,4119.6z"/>
	<path d="M6017.9,4105.3c0-12.1,2.2-22,5.5-22c2.2,0,9.9,9.9,16.5,22c9.9,17.6,8.8,22-5.5,22
		C6025.6,4127.3,6017.9,4117.4,6017.9,4105.3z"/>
	<path d="M5968.4,4105.3c3.3-5.5,11-11,17.6-11c5.5,0,9.9,5.5,9.9,11c0,6.6-7.7,11-17.6,11
		C5969.5,4116.3,5965.1,4111.9,5968.4,4105.3z"/>
	<path d="M5161.8,4082.2c-14.3-5.5-38.5-11-52.7-12.1c-13.2-1.1-25.3-6.6-25.3-12.1s8.8-6.6,19.8-3.3c9.9,2.2,35.2,7.7,54.9,12.1
		c18.7,4.4,35.2,12.1,35.2,17.6s-1.1,9.9-2.2,8.8C5189.3,4093.2,5176.1,4087.7,5161.8,4082.2z"/>
	<path d="M5210.2,4083.3c-3.3-5.5-1.1-11,4.4-11c6.6,0,12.1,5.5,12.1,11c0,6.6-2.2,11-4.4,11
		C5219,4094.3,5213.5,4089.9,5210.2,4083.3z"/>
	<path d="M5021.2,4053.7c9.9-2.2,27.5-2.2,38.5,0c9.9,3.3,1.1,5.5-19.8,5.5S5010.2,4057,5021.2,4053.7z"/>
	<path d="M6039.8,4038.3c0-5.5,5.5-7.7,11-4.4c6.6,3.3,11,8.8,11,12.1c0,2.2-4.4,4.4-11,4.4
		C6045.3,4050.4,6039.8,4044.9,6039.8,4038.3z"/>
	<path d="M6170.6,3821.8c-7.7-22-17.6-45.1-19.8-49.5c-2.2-5.5,12.1-1.1,30.8,7.7c36.3,19.8,41.8,34.1,18.7,63.7
		C6188.2,3860.3,6184.9,3858.1,6170.6,3821.8z"/>
</g>
<g transform="translate(0.000000,577.000000) scale(0.100000,-0.100000)">
	<path d="M635.2,5750.4c16.3-17.6,20.4-39.3,29.2-141.8c3.4-40,10.2-88.2,16.3-107.2c5.4-19,12.2-52.9,14.9-75.3
		c4.7-46.1,5.4-46.1,70.5-33.9c27.1,5.4,46.1,4.1,79.4-3.4c23.7-5.4,52.9-10.2,65.1-10.2c14.9,0,19-2,13.6-7.5s-2.7-19,8.8-48.8
		c10.2-25.8,13.6-42.7,9.5-44.1s-10.9-6.1-15.6-10.2c-4.7-4.7-12.9-8.8-18.3-10.2c-5.4-1.4-12.9-6.1-15.6-10.2
		c-4.1-6.1-6.8-6.1-9.5,0.7c-4.1,10.2-22.4,10.9-22.4,0.7c0-4.1-4.7-2-10.9,3.4c-6.8,7.5-16.3,9.5-27.1,6.8
		c-11.5-2.7-19.7-0.7-25.1,6.8c-14.9,19.7-113.3,12.2-149.9-11.5c-23.1-15.6-25.1-14.2-17.6,5.4c3.4,9.5,4.1,17,0.7,17
		c-3.4,0-15.6-7.5-26.5-17c-11.5-9.5-23.7-17-27.1-17c-4.1,0-12.9-7.5-20.4-17s-17-17-21-17c-3.4,0-12.2-5.4-19-12.9
		c-16.3-17-53.6-24.4-67.2-14.2c-7.5,6.8-12.2,6.1-23.1-3.4c-29.8-27.1-8.1-50.9,46.1-50.9c46.8,0,40-11.5-8.1-14.9
		c-42.7-2.7-54.9-17.6-32.6-41.4c8.1-8.8,14.9-19,14.9-23.7c0-4.1,6.1-12.9,12.9-19.7c6.8-6.8,14.2-18.3,15.6-25.8
		c4.1-21.7,48.2-15.6,111.3,15.6c74.6,38,120.7,55.6,142.5,55.6c29.8,0,101.8-38,139.1-73.9l34.6-33.2l21,19
		c37.3,32.6,100.4,69.2,134.3,78l31.9,8.8l-19.7-31.9c-10.9-17-27.8-38-36.6-46.8c-15.6-14.2-17-21-17-69.2
		c0-33.9,2.7-54.3,7.5-54.3c3.4,0,4.7-3.4,2-7.5c-2.7-5.4-0.7-5.4,8.1-0.7c9.5,4.7,19.7,4.1,36.6-4.1c31.2-14.2,47.5-14.9,47.5-3.4
		c0,5.4-2.7,8.1-6.1,5.4c-8.8-5.4-62.4,25.8-73.9,43.4c-8.8,12.9-8.1,14.2,8.1,21c9.5,3.4,17.6,9.5,17.6,13.6
		c0,3.4,5.4,6.8,12.2,6.8c6.1,0,16.3,3.4,21.7,6.8c8.8,5.4,7.5,8.8-7.5,21.7c-9.5,8.8-19,22.4-21,30.5c-3.4,12.2,0,14.9,19,19
		c12.9,2,23.1,6.8,23.1,10.9s-3.4,4.7-8.1,2c-4.7-3.4-5.4-2-2,4.1c4.7,7.5,8.1,6.1,15.6-5.4c8.1-12.2,16.3-14.9,48.2-14.9
		c48.8-0.7,147.2-10.2,205.5-20.4c52.9-9.5,57-23.7,4.7-17c-26.5,4.1-37.3,2-52.2-7.5c-10.2-6.8-30.5-18.3-44.8-25.1
		c-33.9-14.9-28.5-21,10.2-10.9c16.3,4.1,59,8.8,95,10.2c64.4,2,65.1,2,84.1-17.6c10.9-11.5,23.1-20.4,27.8-20.4s10.9-3.4,12.9-6.8
		c7.5-12.2-37.3-25.1-115.3-33.2c-97-10.9-167.6-24.4-191.3-37.3l-19-10.2l27.1,4.1c14.9,1.4,72.6,10.9,128.2,19.7
		c104.5,17.6,125.5,19,204.2,14.2c51.6-3.4,80.7-10.9,107.2-27.8c17-11.5,17-11.5,21.7,8.1c2,12.2,9.5,21.7,17.6,23.7
		c15.6,4.1,15.6,13.6,5.4,92.9c-4.7,33.9-16.3,75.3-27.1,101.1c-10.9,23.7-19.7,48.8-19.7,54.9c0,6.8-4.1,15.6-9.5,19.7
		c-8.8,7.5-26.5,48.8-43.4,102.4c-4.1,12.9-6.1,29.8-4.1,38c2.7,10.2-5.4,24.4-29.8,52.9c-27.8,31.9-34.6,44.1-36.6,69.2
		c-2.7,34.6,0.7,41.4,42.1,87.5c31.9,35.3,38.7,42.1,160.1,166.9c66.5,68.5,90.9,97.7,90.9,110.6c0,2-269.3,4.1-598.3,4.1H621.6
		L635.2,5750.4z M853.6,5241.6c9.5-6.1,10.9-9.5,4.7-14.9c-14.9-14.9-63.8-32.6-77.3-28.5c-7.5,2.7-15.6,1.4-18.3-2.7
		c-2-3.4-8.8-6.8-14.2-6.8c-6.8,0-4.1,6.8,8.8,20.4c14.2,16.3,40.7,29.2,82.1,40C840,5249.8,846.8,5246.4,853.6,5241.6z
		 M942.5,5223.3c0-9.5-17-13.6-35.3-8.8l-15.6,4.1l17,4.7C933,5230.1,942.5,5230.1,942.5,5223.3z M722,5198.9
		c-10.9-9.5-25.1-17-30.5-17s-18.3-4.7-28.5-9.5c-16.3-8.8-19-8.8-19-0.7c0,11.5,5.4,14.9,49.5,31.2
		C740.3,5219.2,746.4,5218.6,722,5198.9z M838,5143.9c-18.3-12.9-31.2-11.5-14.2,1.4c7.5,5.4,12.9,14.2,11.5,18.3
		c-1.4,5.4,0.7,5.4,6.8-0.7C849.5,5155.5,848.8,5152.1,838,5143.9z M582.9,5087c0-3.4-5.4-6.8-11.5-6.8c-10.2,0-10.9,1.4-2,6.8
		C582.3,5095.1,582.9,5095.1,582.9,5087z"/>
	<path d="M694.9,5341.3c2.7-29.2,1.4-31.2-22.4-44.8c-13.6-7.5-19-11.5-11.5-8.8c7.5,2,23.7,6.8,36,9.5s29.2,10.2,38.7,16.3
		c8.8,6.1,21,10.9,25.8,10.9c5.4,0,14.9,6.1,21.7,13.6c12.9,14.2,12.9,14.2-10.9,12.9c-12.9-1.4-27.1,0-31.2,2.7s-8.8,0.7-10.9-3.4
		c-2-6.1-7.5-4.1-16.3,6.8C694.2,5378.7,691.5,5375.9,694.9,5341.3z"/>
	<path d="M467.6,5195.5c5.4-3.4,17.6-6.1,27.1-6.1l17,0.7l-17,5.4c-9.5,2.7-21.7,5.4-27.1,6.1
		C458.8,5202.3,458.8,5201.6,467.6,5195.5z"/>
	<path d="M966.2,5010.3c-22.4-14.9-29.8-22.4-21.7-23.7c14.9-2.7,77.3,25.1,69.2,31.2c-4.1,2.7-8.1,6.8-10.2,9.5
		C1001.5,5030,984.5,5022.5,966.2,5010.3z"/>
	<path d="M1212.4,4858.4c4.1-1.4,12.2-1.4,17,0c4.1,2,0.7,3.4-8.8,3.4C1211.1,4861.7,1207.7,4860.4,1212.4,4858.4z"/>
	<path d="M1023.9,4829.2c0-8.8,4.7-13.6,13.6-13.6c7.5,0,13.6,0.7,13.6,2c0,0.7-6.1,6.8-13.6,13.6
		C1024.5,4842.1,1023.9,4842.1,1023.9,4829.2z"/>
	<path d="M1485.1,4836c-10.2-2.7,6.1-4.7,42.1-4.1c32.6,0.7,54.3,2.7,47.5,5.4C1559.8,4843.4,1506.9,4842.8,1485.1,4836z"/>
	<path d="M901.8,4833.3c0-6.1,69.9-44.1,88.2-48.2c11.5-2.7,23.1-8.8,25.1-14.2c2-5.4,8.1-9.5,14.2-9.5c9.5,0,9.5,1.4,1.4,9.5
		C1021.2,4779.7,901.8,4837.3,901.8,4833.3z"/>
	<path d="M1380,4721.3c20.4-6.1,96.3-9.5,90.9-4.7c-1.4,1.4-27.1,4.1-57,6.1C1380.7,4725.4,1367.8,4724.7,1380,4721.3z"/>
	<path d="M1494,4722.7c6.1-1.4,17-1.4,23.7,0c6.1,2,0.7,3.4-12.2,3.4S1487.2,4724.7,1494,4722.7z"/>
	<path d="M1556.4,4550.4c-3.4-4.7,3.4-5.4,21.7-2c34.6,6.1,36.6,9.5,6.8,9.5C1571.3,4557.8,1558.4,4554.4,1556.4,4550.4z"/>
	<path d="M694.9,4526.6c-12.9-10.2-12.9-10.2-0.7-6.8c6.8,2.7,36-2,64.4-8.8c124.1-31.9,156.7-36.6,156.7-21.7
		c0,4.1-136.3,37.3-183.2,44.8C715.2,4536.1,703.7,4534.1,694.9,4526.6z"/>
	<path d="M1559.8,4534.8c0-1.4,4.7-4.7,10.9-6.8c5.4-2,8.1-1.4,6.1,2.7C1572.7,4537.5,1559.8,4540.2,1559.8,4534.8z"/>
	<path d="M1439,4433.7c-7.5-8.1-6.8-14.9,0.7-33.9c9.5-21.7,25.1-39.3,25.1-27.1c0,2.7-4.1,20.4-8.8,38.7
		C1448.5,4439.1,1445.8,4442.5,1439,4433.7z"/>
	<path d="M920.1,4417.4l14.9-12.2l-74.6-76c-68.5-69.9-74.6-74.6-82.8-62.4c-4.1,6.8-12.2,12.9-17,12.9
		c-18.3,0-120.7,57.7-148.6,84.1c-23.7,21-29.2,23.7-29.2,13.6c0-7.5-7.5-26.5-16.3-43.4s-30.5-58.3-47.5-92.9
		c-17.6-34.6-47.5-83.4-67.2-108.5c-55.6-72.6-72.6-112.6-44.8-105.8c11.5,3.4,13.6,1.4,11.5-11.5c-2-18.3-19-27.1-19-10.9
		c0,25.1-12.2,8.1-16.3-21.7c-4.7-36,1.4-75.3,23.7-147.2c7.5-25.8,21-73.3,29.8-105.1c8.1-31.9,19.7-67.2,25.8-78.7
		c6.1-11.5,17-67.8,25.1-124.8c17-124.8,40.7-219.1,90.9-361.6c36.6-103.1,65.1-227.9,65.1-282.9c0-17.6-5.4-30.5-17-43.4
		c-9.5-10.2-17-25.8-17-35.3c0-8.8-2.7-16.3-5.4-16.3c-13.6,0-13.6,10.2-0.7,35.3c7.5,14.9,12.2,28.5,10.2,31.2
		c-2,2-7.5-6.1-11.5-17.6c-8.8-25.1-13.6-26.5-25.1-8.1c-8.8,14.9-31.9,18.3-39.3,6.1c-6.1-10.2,10.2-38.7,25.8-44.1
		c22.4-6.8,15.6-38.7-14.9-66.5c-14.9-13.6-27.1-27.1-27.1-31.2c0-3.4-6.8-10.2-14.9-14.2c-8.8-4.7-33.9-20.4-56.3-35.3
		c-25.1-16.3-59-31.2-88.2-38.7c-80-20.4-143.8-39.3-158.7-46.8c-21.7-12.2-36-44.8-30.5-71.9c2-12.9,6.8-22.4,9.5-20.4
		s8.8-0.7,12.9-6.1c4.1-5.4,23.7-16.3,43.4-24.4c71.2-30.5,211-24.4,316.1,13.6l51.6,19l4.7,40.7c6.8,61.1,39.3,116.7,39.3,67.2
		c0-14.2,4.7-27.8,13.6-35.3c13.6-12.9,14.9-12.2,64.4,12.2c47.5,23.1,175,102.4,215,133c21,17,31.2,18.3,18.3,3.4
		c-23.7-29.2-260.5-172.3-284.2-172.3c-4.1,0-14.9,8.1-25.1,17.6c-9.5,9.5-19,15.6-21,13.6c-1.4-2-4.7-19-6.8-37.3l-2.7-33.2
		l39.3,13.6c22.4,7.5,42.7,15.6,46.1,19c3.4,3.4,10.2,4.1,16.3,2c6.8-2.7,8.8-1.4,5.4,3.4c-4.7,8.1-2.7,9.5,33.2,11.5
		c81.4,5.4,211.6,39.3,261.2,69.2c17.6,10.2,20.4,15.6,19,36c-1.4,17-5.4,24.4-14.9,25.8c-10.2,2-12.2,0-8.8-13.6
		c4.1-14.2,0-17.6-36-34.6c-42.1-19-163.5-54.3-168.9-48.8c-1.4,2,4.1,10.9,12.9,20.4s17.6,15.6,19,13.6c2-2,8.1,0.7,14.2,6.1
		c21,18.3,104.5,71.9,112.6,71.9c4.1,0,11.5,8.1,15.6,17.6c6.8,14.2,5.4,25.8-6.1,64.4c-17,56.3-36.6,73.9-66.5,62.4
		c-23.1-8.8-49.5,6.1-36,19.7c12.2,12.2,9.5,38-4.1,45.4c-13.6,7.5-25.1,79.4-46.1,278.8c-14.9,149.2-14.9,212.3,0,257.1
		c19.7,57,12.2,152-22.4,296.4c-16.3,66.5-27.8,133-27.8,155.3v39.3l63.1,64.4c68.5,69.9,156,143.8,171.6,143.8c5.4,0,9.5,2,9.5,5.4
		c0,2.7,8.8,10.9,19,17.6c18.3,12.9,18.3,12.9,7.5,0c-6.8-8.1-9.5-21.7-8.1-36.6c1.4-12.9-2.7-35.3-8.8-48.8
		c-10.9-24.4-10.9-27.1,2.7-57.7c7.5-17.6,26.5-86.2,42.1-151.3c30.5-124.1,62.4-206.9,93.6-239.5c33.2-35.3,62.4-45.5,128.2-45.5
		c83.4,0,169.6,10.2,205.5,24.4c17,6.1,47.5,12.2,67.8,13.6c120.1,8.1,201.5,20.4,322.2,47.5c74.6,17,165.5,33.2,201.5,36.6
		c71.2,6.8,220.5-0.7,283.6-13.6c20.4-4.7,44.1-9.5,52.9-10.9c13.6-2.7,15.6-6.1,11.5-23.1c-4.1-17.6-2.7-20.4,9.5-20.4
		c19.7,0,17.6-8.1-4.7-23.1c-10.2-6.1-12.9-10.2-5.4-8.1c10.2,3.4,11.5,2,7.5-10.9c-14.9-47.5,3.4-61.7,20.4-16.3
		c6.1,16.3,18.3,36.6,27.1,44.8c14.9,14.2,16.3,14.2,48.2,3.4c18.3-6.1,42.1-17,52.2-24.4c10.9-7.5,31.9-14.9,46.8-16.3
		c17.6-2,33.9-8.8,45.4-19.7c10.2-10.2,23.1-17.6,29.2-17.6c12.9,0,43.4-35.3,82.1-94.3c32.6-50.9,43.4-58.3,67.8-52.2
		c23.1,5.4,23.1,14.2-0.7,82.1c-18.3,52.2-38,86.2-102.4,181.8c-29.2,42.7-29.8,43.4-47.5,34.6c-18.3-9.5-102.4-13.6-102.4-4.1
		c0,2.7,10.2,9.5,22.4,14.9c15.6,7.5,22.4,15.6,23.7,29.8c2,14.2,0,17.6-6.8,13.6c-4.7-2.7-6.8-2.7-4.1,0.7
		c8.1,8.8-8.1,31.9-19,27.8c-5.4-2-8.8-1.4-6.8,2s-27.1,33.2-64.4,65.8c-111.3,97-120.1,106.5-101.1,97c8.8-4.7,31.9-22.4,50.9-40
		c50.9-46.8,105.1-90.2,108.5-86.8s-70.5,77.3-100.4,101.1c-15.6,11.5-17.6,16.3-10.2,24.4c6.8,8.1,5.4,12.2-8.1,23.1
		c-18.3,13.6-30.5,17-23.7,6.8c2-3.4,0.7-8.1-3.4-10.9c-3.4-2-9.5,3.4-12.9,12.2s-12.2,18.3-19,21c-10.9,4.7-10.2,6.8,6.8,21.7
		c10.2,8.8,21,16.3,23.7,16.3c2.7-0.7,13.6-14.9,24.4-32.6c48.2-76.7,103.8-150.6,116-154c7.5-2.7,23.7-15.6,36.6-29.2
		c25.1-27.8,27.1-31.2-36.6,66.5c-28.5,43.4-80.7,114-126.9,171.6c-6.8,8.1-12.2,10.9-12.2,6.1c0-4.7-12.2-21.7-27.8-38.7
		c-14.9-16.3-27.1-31.9-27.8-35.3c0-2.7-1.4-6.8-3.4-8.8c-2.7-2-2,0.7,0.7,5.4c8.8,14.9-10.2,8.1-37.3-13.6
		c-19.7-15.6-27.8-27.8-30.5-46.8c-2.7-17.6-8.1-25.8-15.6-25.8c-6.1,0-57-2-113.3-5.4c-57-2.7-114-3.4-127.5-1.4
		c-13.6,2-24.4,1.4-24.4-2c0-5.4,34.6-8.1,67.2-5.4c8.8,0.7,14.2-2,11.5-5.4c-2-3.4,6.8-6.8,21.7-7.5c58.3-2,84.1-6.1,91.6-14.2
		c6.1-6.8,6.1-7.5,0-4.1c-4.7,2.7-8.8,2-8.8-2s-4.1-5.4-9.5-3.4c-12.2,4.7-21.7-10.9-10.9-17.6c12.9-8.1-1.4-13.6-50.2-19.7
		c-29.2-3.4-47.5-2.7-52.2,2c-6.1,5.4-6.8,5.4-4.1,0c6.8-11.5-27.8-16.3-36.6-5.4c-4.1,5.4-12.9,9.5-19,8.8c-8.1,0-7.5-1.4,2.7-6.1
		c7.5-3.4,9.5-6.1,4.7-6.1c-4.7-0.7-6.8-3.4-4.7-7.5c5.4-8.1-5.4-8.8-14.2-0.7c-8.1,7.5-63.8,12.9-63.8,6.1c0-8.8-23.7-6.1-33.2,3.4
		c-6.8,6.8-7.5,5.4-3.4-4.1c4.1-11.5,2-12.2-20.4-8.8c-14.2,2-31.2,0.7-38.7-2.7c-8.8-5.4-12.9-4.7-12.9,0c0,4.1-2.7,5.4-6.8,3.4
		c-3.4-2-6.8-0.7-6.8,2.7c0,4.1-5.4,7.5-11.5,7.5c-10.2,0-10.9-1.4-2-6.8c5.4-3.4,6.8-6.8,3.4-6.8c-4.1,0-10.9,3.4-14.9,7.5
		c-6.1,6.1-12.9,6.1-28.5,0c-27.8-11.5-120.7-14.2-135-3.4c-8.1,6.1-14.2,6.1-20.4,1.4c-6.1-5.4-10.9-5.4-16.3,0
		c-6.1,6.1-6.1,8.1,0.7,8.1c4.7,0,6.1,3.4,4.1,6.8c-3.4,5.4-7.5,5.4-13.6,0s-9.5-4.1-12.2,6.1c-3.4,12.9,4.7,14.9,20.4,5.4
		c12.2-8.1,16.3,5.4,5.4,19.7c-10.9,14.2-13.6,32.6-4.1,26.5c3.4-2,8.8,2.7,10.9,10.9c3.4,9.5,8.8,12.9,17.6,10.9
		c6.8-2,11.5-0.7,8.8,2.7c-2,3.4,0,6.8,3.4,6.8c7.5,1.4,17,3.4,26.5,6.1c2.7,0.7,14.2,1.4,25.1,0.7c15.6,0,12.2,2-13.6,9.5
		c-36.6,10.9-147.9,12.9-201.5,4.1c-20.4-3.4-34.6-2.7-39.3,2c-3.4,3.4-6.8,28.5-6.8,54.9c0,46.1,1.4,48.8,20.4,63.1
		c16.3,12.2,20.4,20.4,20.4,40.7c0,13.6-2.7,28.5-5.4,33.2c-4.7,7.5-81.4,36-97.7,36c-14.9,0-78,31.9-92.9,46.8
		c-14.2,14.2-19.7,48.2-7.5,48.2c4.1,0,6.8,4.7,6.8,10.2c0,5.4,3.4,10.2,7.5,10.2c3.4,0,5.4,2.7,2.7,6.1c-2,3.4-0.7,8.1,3.4,10.9
		c4.1,2,9.5-2.7,12.9-11.5c4.1-9.5,6.8-11.5,6.8-5.4c0.7,6.1-2.7,14.2-7.5,19c-8.1,8.1-1.4,11.5,20.4,8.8
		c10.2-1.4,10.2,2.7,1.4,19.7c-4.7,8.8-4.1,14.2,2.7,19.7c6.1,5.4,8.8,4.7,8.8-1.4c1.4-25.1,15.6-69.2,15.6-46.8
		c0,4.1,8.1-0.7,18.3-10.9c21-20.4,27.1-12.9,16.3,20.4c-3.4,12.2-8.1,38-10.9,56.3c-6.8,55.6-12.9,57.7-37.3,16.3
		c-26.5-45.4-76-118.7-96.3-143.1c-13.6-16.3-21-19-56.3-19.7c-61.7-1.4-69.9,0-73.3,12.9c-2,6.8-3.4,2.7-4.1-8.8
		c-2-33.9-14.9-2-18.3,42.7c-6.1,90.9-31.2,122.1-116,142.5c-25.1,6.8-53.6,16.3-63.1,21.7l-17,9.5l17,4.7c17,4.7,17,4.7-2,5.4
		c-10.9,0.7-25.8,4.1-33.9,8.1l-14.9,6.8L920.1,4417.4z M1061.2,4333.3c9.5-14.9-2-12.2-17.6,4.7c-15.6,17-15.6,17.6-1.4,10.2
		C1050.3,4344.2,1059.1,4337.4,1061.2,4333.3z M611.4,4317c14.2-13.6,33.9-27.8,43.4-31.9c21.7-10.2,21-21.7-0.7-16.3
		c-9.5,2.7-17,1.4-17-2.7c0-3.4,2.7-6.8,6.8-6.8c3.4,0,4.7-4.1,2.7-9.5c-2.7-6.1-10.2-8.8-21-6.8c-15.6,2.7-17,2-8.8-7.5
		c7.5-9.5,6.8-11.5-5.4-14.9c-8.1-2-14.9-6.8-14.9-10.2c0-4.1-4.7-5.4-10.2-2.7c-6.1,2-10.2,0-10.2-5.4c0-13.6-29.8-31.2-40.7-24.4
		c-5.4,3.4-12.2,4.1-14.9,2.7c-8.8-5.4,1.4,32.6,11.5,44.8c4.7,5.4,12.2,21.7,15.6,36c4.1,14.2,12.9,31.2,20.4,37.3
		c6.8,6.1,12.2,18.3,11.5,27.1C578.2,4345.5,580.2,4344.8,611.4,4317z M488,4150.8c0-3.4-3.4-6.8-7.5-6.8c-3.4,0-4.7,3.4-2.7,6.8
		c2,4.1,5.4,6.8,7.5,6.8C486.6,4157.6,488,4154.9,488,4150.8z M471,4130.5c-2-3.4-0.7-6.8,2.7-6.8c4.1,0,7.5,3.4,7.5,6.8
		c0,4.1,2.7,6.8,6.1,6.8s4.7-6.1,2.7-14.2s-7.5-12.2-12.9-10.2s-9.5,1.4-9.5-2s-6.1-7.5-13.6-9.5c-16.3-4.1-17-1.4-1.4,19
		C463.5,4135.9,479.8,4144.7,471,4130.5z M444.5,4064c-2.7-2-7.5,0-10.9,5.4c-10.2,16.3-7.5,22.4,4.1,10.2
		C443.9,4073.5,446.6,4066.7,444.5,4064z M476.4,4069.4c-6.1-10.9-17.6-20.4-24.4-20.4c-11.5,0-11.5,0.7-2,10.9
		c6.1,5.4,8.8,13.6,6.8,17.6c-2.7,4.1-2,5.4,1.4,3.4c4.1-2,10.9-1.4,16.3,2.7C489.3,4092.5,490,4091.8,476.4,4069.4z M1369.2,4003.6
		c-6.8-7.5-6.8-9.5-0.7-6.1c4.1,2.7,8.1,2,8.1-1.4s8.1-4.7,18.3-2.7c10.2,2,27.1-1.4,38.7-8.1c19-10.2,21.7-15.6,23.1-41.4
		c0.7-17-2-30.5-5.4-30.5c-4.1,0-6.8-3.4-6.8-7.5c0-3.4,2.7-4.7,6.8-2.7c4.1,2,4.7-0.7,2.7-6.1c-2-6.1-6.8-9.5-9.5-7.5
		c-3.4,2-4.1-2.7-2-10.2c4.1-16.3,0-17-14.9-2.7c-8.8,8.8-8.8,12.9-2,21.7c7.5,8.8,6.8,9.5-7.5,4.7c-12.9-4.1-15.6-2.7-12.2,6.1
		c6.1,14.9-4.7,19-27.1,10.2c-10.9-4.7-15.6-8.8-10.2-10.9c4.7-2,12.9,0,18.3,4.7c7.5,6.1,9.5,5.4,8.1-5.4
		c-0.7-8.1-4.1-12.2-10.2-9.5c-7.5,2.7-8.8-2.7-7.5-23.1c2-20.4,0-26.5-8.1-25.8c-6.1,0.7-10.9-3.4-10.9-8.1s6.8-8.1,14.2-7.5
		c10.9,0.7,14.9-2.7,16.3-15.6c1.4-9.5,4.1-21.7,6.1-27.1c8.1-20.4,7.5-26.5-2.7-22.4c-5.4,2-12.9,0-17-5.4
		c-4.7-6.8-5.4-3.4-4.1,12.2c2,12.2,0.7,20.4-2.7,18.3c-2.7-2-5.4-8.1-5.4-13.6c0-5.4-2.7-9.5-6.1-9.5c-15.6,0-27.8,9.5-27.8,21.7
		c0,12.9-1.4,12.9-15.6,3.4c-9.5-6.1-19.7-8.1-24.4-4.7c-6.8,3.4-6.8,6.1-1.4,9.5c12.2,7.5,2,17-13.6,12.9c-8.1-2.7-17,0-20.4,5.4
		c-5.4,8.1-7.5,8.1-12.9-0.7s-6.8-8.8-6.8,0.7c0,6.1,6.8,13.6,15.6,16.3c8.1,3.4,20.4,7.5,27.8,9.5c12.2,4.1,12.2,4.7,0,14.2
		c-6.8,5.4-10.2,6.8-7.5,2c3.4-5.4,0-7.5-8.8-6.8c-15.6,0.7-17,5.4-4.7,17.6c6.8,6.8,6.1,8.1-2,6.1c-6.1-1.4-9.5,2-8.1,8.8
		c0.7,6.1-2.7,12.9-8.8,15.6c-14.9,5.4-12.2,17.6,3.4,17.6c14.2,0,27.8,21,16.3,25.1c-3.4,1.4-10.9,5.4-16.3,8.8
		c-8.8,6.1-7.5,8.8,6.8,20.4c20.4,16.3,27.1,17,27.1,2.7c0-5.4,2.7-8.8,6.1-6.1c4.1,2,10.2-2.7,14.2-10.2c4.1-7.5,13.6-13.6,21-13.6
		s23.1-4.7,33.9-10.9c11.5-5.4,22.4-8.8,24.4-6.8c5.4,4.7-4.7,18.3-11.5,14.2c-2.7-2-7.5,2-9.5,8.1c-2.7,6.1-1.4,13.6,3.4,15.6
		c4.7,3.4,5.4,6.8,0.7,9.5c-4.1,2-9.5,0.7-12.2-3.4c-6.8-11.5-14.9,5.4-10.9,25.1c2,12.9,6.8,16.3,23.1,16.3
		C1375.9,4015.2,1377.3,4013.8,1369.2,4003.6z M2448.4,3957.5c-3.4-4.7-6.1-9.5-4.7-10.9c0.7-1.4,0-2-1.4-0.7
		c-7.5,4.7-4.7,19.7,3.4,19.7C2451.8,3965.6,2453.2,3962.9,2448.4,3957.5z M2502.7,3932.4c0-8.8-15.6-3.4-19,6.8
		c-1.4,4.7,1.4,6.8,8.1,4.1C2497.9,3941.2,2502.7,3935.8,2502.7,3932.4z M1230.8,3872.7c2-3.4,0.7-6.8-2.7-6.8
		c-4.1,0-7.5,3.4-7.5,6.8c0,4.1,1.4,6.8,2.7,6.8C1225.3,3879.5,1228.7,3876.8,1230.8,3872.7z M1644.6,3825.2c2-4.1-2.7-6.8-11.5-6.8
		c-12.2,0-13.6,1.4-5.4,6.8C1640.5,3833.4,1639.8,3833.4,1644.6,3825.2z M664.3,3728.2c4.7-15.6,11.5-24.4,16.3-23.1
		c6.1,2.7,7.5-2,5.4-12.9c-2-12.2,0-16.3,8.8-16.3s10.9-5.4,8.8-24.4c-1.4-17,2-27.1,10.2-33.2c9.5-6.8,10.9-13.6,7.5-27.8
		c-4.7-18.3-4.1-19,7.5-9.5c7.5,6.1,10.9,6.8,7.5,2c-2.7-4.7-1.4-8.8,2.7-8.8c5.4,0,5.4-4.1,0-13.6c-6.1-10.9-5.4-12.9,4.1-8.8
		c9.5,3.4,10.9,0.7,8.1-16.3c-2-14.2,0-19.7,5.4-17.6c4.1,1.4,9.5-4.7,10.9-14.2c2.7-11.5,0.7-17.6-5.4-17.6
		c-5.4,0-7.5,4.1-5.4,10.2c2.7,6.8,0,10.2-6.8,10.2c-6.1,0-13.6,5.4-15.6,12.2c-2.7,6.1-9.5,16.3-15.6,21.7
		c-6.8,5.4-15.6,21.7-21,36c-4.7,13.6-11.5,25.1-14.2,25.1c-10.2,0-27.1,52.2-28.5,85.5c-0.7,12.9-4.1,20.4-8.1,18.3
		c-10.2-4.1-17,39.3-7.5,50.9C648.1,3766.9,653.5,3760.8,664.3,3728.2z M1393.6,3750.6c2-3.4,0.7-6.8-2.7-6.8
		c-4.1,0-7.5,3.4-7.5,6.8c0,4.1,1.4,6.8,2.7,6.8C1388.1,3757.4,1391.5,3754.7,1393.6,3750.6z M2843.9,3454.2c6.1-19.7,9.5-36,7.5-36
		c-4.1,0-13.6,25.8-19.7,54.3C2824.2,3506.4,2831.7,3495.5,2843.9,3454.2z M806.1,2841.6c8.1,0-8.8-60.4-20.4-70.5
		c-4.7-4.1-6.8-4.1-4.7-0.7c2,4.1,1.4,22.4-0.7,42.1c-5.4,40,4.1,70.5,13.6,44.1C797.3,2848.4,802.7,2841.6,806.1,2841.6z
		 M574.1,2814.5c4.7-9.5,6.8-17.6,5.4-19.7c-5.4-4.7-30.5,21-30.5,31.2C549,2840.2,564.6,2832.8,574.1,2814.5z M667,2809.7
		c4.7-11.5-16.3-1.4-29.8,14.9c-8.1,10.2-7.5,10.2,8.8,2.7C655.5,2823.3,665,2815.1,667,2809.7z M750.5,2775.8
		c-4.1-4.1-51.6,14.2-48.8,18.3c2,2.7,13.6,0.7,27.1-5.4C741.7,2782.6,751.2,2777.2,750.5,2775.8z M750.5,2796.8
		c-2-2-8.1-2.7-12.9-0.7c-5.4,2-3.4,4.1,4.1,4.1C749.1,2800.9,753.2,2798.9,750.5,2796.8z M349.6,2560.1c-7.5-5.4-17-10.2-20.4-10.2
		c-4.1,0.7,0,4.7,9.5,10.2C360.4,2573,365.9,2572.3,349.6,2560.1z M280.4,2558c1.4-2.7-3.4-6.1-11.5-6.1c-11.5-1.4-12.9,0-4.7,4.7
		C276.3,2564.8,276.3,2564.8,280.4,2558z M234.3,2542.4c0.7-3.4,1.4-7.5,2-8.8c0-2,10.2,0,22.4,3.4c13.6,3.4,19,3.4,14.9-0.7
		c-10.2-10.2-53.6-17.6-47.5-8.1c2.7,4.7,0.7,8.1-4.1,8.8c-6.8,0-6.8,1.4,0,4.1c4.1,1.4,6.1,6.8,3.4,10.9c-2,4.7-1.4,5.4,2,2.7
		C230.9,2551.3,234.3,2545.8,234.3,2542.4z M311.6,2547.2c0-1.4-4.7-4.7-10.9-6.8c-5.4-2-8.1-1.4-6.1,2.7
		C298.7,2549.9,311.6,2552.6,311.6,2547.2z M789.8,2543.1c-2-3.4-9.5-6.8-15.6-6.8c-10.2,0-10.2,1.4-1.4,6.8
		C786.4,2551.9,795.3,2551.9,789.8,2543.1z M308.9,2519.4c-0.7-5.4-5.4-14.2-10.9-19c-6.8-6.8-7.5-6.1-2.7,2
		c3.4,5.4,6.1,12.2,6.8,15.6c2,9.5,2.7,11.5,5.4,11.5C308.9,2529.6,309.6,2524.8,308.9,2519.4z M363.1,2519.4
		c-0.7-5.4-3.4-11.5-5.4-14.2c-3.4-2.7-2.7,10.9,0.7,23.1C360.4,2534.3,364.5,2527.5,363.1,2519.4z M345.5,2520.1
		c0-1.4-4.7-4.7-10.9-6.8c-5.4-2-8.1-1.4-6.1,2.7C332.6,2522.8,345.5,2525.5,345.5,2520.1z M259.4,2511.2c-4.7-1.4-12.9-1.4-17,0
		c-4.7,2-1.4,3.4,8.1,3.4C260,2514.6,263.4,2513.3,259.4,2511.2z M342.1,2502.4c-2-3.4-8.1-6.8-12.2-6.8c-4.7,0-4.1,2.7,2,6.8
		C344.8,2510.6,347.5,2510.6,342.1,2502.4z M511.7,2482.1c2-4.1-0.7-4.7-6.1-2.7c-12.2,4.7-14.2,9.5-4.7,9.5
		C504.9,2488.8,509.7,2486.1,511.7,2482.1z M315,2451.5c18.3-6.1,22.4-8.8,12.2-9.5c-23.1-1.4-82.8,12.9-87.5,20.4
		C234.9,2470.5,272.2,2464.4,315,2451.5z"/>
	<path d="M1376.6,3967.7c0-3.4,3.4-6.8,7.5-6.8c3.4,0,4.7,3.4,2.7,6.8c-2,4.1-5.4,6.8-7.5,6.8
		C1378,3974.5,1376.6,3971.7,1376.6,3967.7z"/>
	<path d="M1280.3,3871.3c4.1-4.1,12.2-5.4,19-4.1c9.5,2,8.1,3.4-6.1,6.8C1280.3,3876.1,1276.2,3875.4,1280.3,3871.3z"/>
	<path d="M1332.5,3845.6c2-3.4,6.8-6.8,10.9-6.8c3.4,0,6.1,3.4,6.1,6.8c0,4.1-4.7,6.8-10.9,6.8
		C1333.2,3852.3,1330.5,3849.6,1332.5,3845.6z"/>
	<path d="M1265.4,3825.9c-2.7-3.4,0.7-5.4,6.1-4.7c14.2,2,21,10.9,8.1,10.9C1273.5,3832,1267.4,3829.3,1265.4,3825.9z"/>
	<path d="M810.2,4401.8c5.4-8.1,79.4-7.5,92.9,0.7c5.4,3.4-12.9,6.1-44.1,6.1C824.4,4408.6,807.5,4405.9,810.2,4401.8z"/>
	<path d="M715.2,4367.9c22.4-2.7,60.4-5.4,84.8-4.7h44.1l-40.7,4.7c-22.4,2.7-60.4,5.4-84.8,4.7h-44.1L715.2,4367.9z"/>
	<path d="M1171.7,4193.6c4.1-1.4,12.2-1.4,17,0c4.1,2,0.7,3.4-8.8,3.4C1170.4,4197,1167,4195.6,1171.7,4193.6z"/>
	<path d="M2512.9,4123.7c-2-3.4-2-6.8,1.4-7.5c2.7,0,12.9-1.4,22.4-2s24.4-3.4,33.9-6.1c12.2-4.1,10.2-1.4-6.8,8.1
		C2537.3,4131.2,2519,4133.9,2512.9,4123.7z"/>
	<path d="M2666.2,4024.7c4.7-6.1,8.1-19.7,7.5-30.5c-2-22.4,10.9-50.9,31.2-69.9c14.2-12.2,28.5-10.2,28.5,5.4
		c0,8.8-66.5,105.8-72.6,105.8C2658.7,4035.5,2661.4,4030.8,2666.2,4024.7z"/>
	<path d="M1807.4,3871.3c11.5-4.1,22.4-10.2,24.4-14.2c2.7-3.4,6.1-3.4,8.8,1.4c3.4,4.7,10.2,4.7,21.7,0.7
		c9.5-4.1,20.4-4.7,24.4-2.7c4.7,3.4,5.4,1.4,2-4.1c-4.1-6.1,1.4-7.5,22.4-5.4c23.7,2,28.5,0.7,29.8-11.5c2-12.9,2.7-12.9,17.6,2
		l15.6,16.3l-15.6-4.7c-13.6-4.7-13.6-4.1-4.7,5.4c7.5,6.8,23.1,9.5,52.9,8.8c27.8-0.7,44.8,2.7,50.2,8.1c5.4,7.5,3.4,8.1-12.9,4.7
		c-10.9-2.7-23.7-5.4-27.8-7.5c-4.7-1.4-8.8,0.7-8.8,4.1c0,3.4-47.5,6.1-109.9,6.1C1810.8,3878.1,1791.1,3876.8,1807.4,3871.3z"/>
	<path d="M1865,3838.8c0-3.4,3.4-6.8,7.5-6.8c3.4,0,4.7,3.4,2.7,6.8c-2,4.1-5.4,6.8-7.5,6.8C1866.4,3845.6,1865,3842.9,1865,3838.8z
		"/>
	<path d="M1907.1,3827.9c6.8-6.8,13.6-10.9,14.9-8.8c2,2-3.4,7.5-11.5,12.2C1896.2,3840.1,1896.2,3839.5,1907.1,3827.9z"/>
	<path d="M1869.8,3808.9c-14.2-10.9-14.9-17.6-2-17.6c5.4,0,11.5,4.7,13.6,10.9C1887.4,3817.8,1884,3819.1,1869.8,3808.9z"/>
	<path d="M2194.7,3812.3c-2.7-3.4,2-4.7,9.5-2.7c15.6,4.1,17.6,8.8,4.1,8.8C2202.9,3818.4,2196.7,3815.7,2194.7,3812.3z"/>
	<path d="M2630.9,3782.5c5.4-6.1,10.9-10.2,12.9-8.1c5.4,5.4,35.3-42.1,35.3-55.6c0-6.8-4.7-19.7-10.9-28.5
		c-11.5-15.6-11.5-15.6,11.5-10.9c12.9,2.7,28.5,8.1,35.3,11.5c11.5,6.1,11.5,6.8-1.4,24.4c-17,23.7-68.5,73.3-68.5,66.5
		c0-3.4-5.4-1.4-11.5,3.4C2622.8,3794,2622.1,3793.3,2630.9,3782.5z M2702.8,3724.1c2-3.4,1.4-8.1-2-10.2s-6.1,0.7-6.1,6.1
		C2694.7,3731.6,2696.7,3733,2702.8,3724.1z"/>
	<path d="M2852,3691.6c14.2-47.5,37.3-107.2,59-149.2c4.1-8.1,10.2-26.5,12.9-40.7c4.7-21,4.7-18.3,2.7,12.9
		c-2,21.7-8.1,53.6-14.2,71.2c-10.2,31.2-69.2,158.1-73.9,158.1C2837.8,3743.8,2843.9,3720.1,2852,3691.6z"/>
	<path d="M959.4,2653c-10.9-6.1-21.7-12.2-23.1-13.6c-2-0.7,0-4.7,3.4-8.1c4.7-4.7,13.6,0,26.5,13.6
		C988.6,2667.9,987.9,2669.3,959.4,2653z"/>
	<path d="M323.8,2368.8c4.7-2,10.9-1.4,12.9,0.7c2.7,2-1.4,4.1-8.8,3.4C320.4,2372.8,318.4,2370.8,323.8,2368.8z"/>
</g>
</svg>
